<svg width="50" height="50" viewBox="0 0 50 50" fill="none" xmlns="http://www.w3.org/2000/svg">
<path d="M25.0802 24.2015C22.5434 24.2015 20.4795 22.1375 20.4795 19.6007C20.4795 17.0639 22.5434 15 25.0802 15C27.617 15 29.681 17.0639 29.681 19.6007C29.681 22.1375 27.617 24.2015 25.0802 24.2015ZM25.0802 15.8598C23.0176 15.8598 21.3393 17.5381 21.3393 19.6007C21.3393 21.6634 23.0176 23.3417 25.0802 23.3417C27.1429 23.3417 28.8212 21.6634 28.8212 19.6007C28.8212 17.5381 27.1429 15.8598 25.0802 15.8598Z" fill="white" stroke="none"/>
<path d="M33.1597 35H32.3C32.3 31.0188 29.0611 27.78 25.0799 27.78C21.0986 27.78 17.8598 31.0188 17.8598 35H17C17 30.545 20.6244 26.9202 25.0799 26.9202C29.5353 26.9202 33.1597 30.5446 33.1597 35Z" fill="white" stroke="none"/>
<circle cx="25" cy="25" r="24.5" />
</svg>
