<svg width="50" height="50" viewBox="0 0 50 50" fill="none" xmlns="http://www.w3.org/2000/svg">
<path d="M32.4744 35H27.1614C26.7138 35 26.3497 34.6358 26.3497 34.1883V28.0631H23.5986V34.1883C23.5986 34.6358 23.2344 35 22.7868 35H17.4733C17.0258 35 16.6616 34.6358 16.6616 34.1883V23.5832L15.5853 24.5459L15 23.8921L24.9412 15L32.4091 21.6785V21.675L34.9482 23.9491L34.3629 24.6029L34.3625 24.6025L33.2862 23.6403V34.1874C33.2866 34.6358 32.9224 35 32.4744 35ZM27.2272 34.1225H32.4091V22.8557L24.9412 16.1772L17.5392 22.7983V34.122H22.721V27.9968C22.721 27.5493 23.0852 27.1851 23.5328 27.1851H26.415C26.8626 27.1851 27.2268 27.5493 27.2268 27.9968V34.1225H27.2272Z" fill="#ffffff" stroke="none"/>
<circle cx="25" cy="25" r="24.5" />
</svg>
