<svg width="50" height="50" viewBox="0 0 50 50" fill="none" xmlns="http://www.w3.org/2000/svg">
<path d="M24.9998 35C22.329 35 19.8179 33.9599 17.9288 32.0708C16.0401 30.1821 15 27.671 15 24.9998C15 22.329 16.0401 19.8179 17.9292 17.9288C19.8179 16.0401 22.329 15 24.9998 15C27.6706 15 30.1817 16.0401 32.0708 17.9292C33.9594 19.8179 35 22.3294 35 25.0002C35 27.671 33.9599 30.1821 32.0708 32.0712C30.1821 33.9599 27.671 35 24.9998 35ZM24.9998 15.873C19.9672 15.873 15.873 19.9672 15.873 24.9998C15.873 30.0324 19.9672 34.1266 24.9998 34.1266C30.0324 34.1266 34.1266 30.0324 34.1266 24.9998C34.1266 19.9672 30.0324 15.873 24.9998 15.873Z" fill="white" stroke="none"/>
<path d="M25.4364 15.4365H24.5635V34.5636H25.4364V15.4365Z" fill="white" stroke="none"/>
<path d="M33.4019 19.9907H16.5991V20.8637H33.4019V19.9907Z" fill="white" stroke="none"/>
<path d="M34.5636 24.5632H15.4365V25.4362H34.5636V24.5632Z" fill="white" stroke="none"/>
<path d="M33.4019 29.1504H16.5991V30.0234H33.4019V29.1504Z" fill="white" stroke="none"/>
<path d="M19.1607 25.0042C19.1297 21.6049 20.4758 18.3291 23.161 15.2676L23.8175 15.8433C21.2781 18.7385 20.0053 21.8183 20.0341 24.9963L19.1607 25.0042Z" fill="white" stroke="none"/>
<path d="M23.1615 34.7324C20.4763 31.671 19.1306 28.3952 19.1612 24.9958L20.0341 25.0037C20.0053 28.1817 21.2781 31.2615 23.8175 34.1567L23.1615 34.7324Z" fill="white" stroke="none"/>
<path d="M30.838 25.0042L29.9651 24.9963C29.9939 21.8183 28.7211 18.7385 26.1816 15.8433L26.8381 15.2676C29.5229 18.3291 30.869 21.6049 30.838 25.0042Z" fill="white" stroke="none"/>
<path d="M26.8386 34.7324L26.1821 34.1567C28.7216 31.2615 29.9943 28.1817 29.9655 25.0037L30.8385 24.9958C30.8699 28.3952 29.5238 31.671 26.8386 34.7324Z" fill="white" stroke="none"/>
<circle cx="25" cy="25" r="24.5"/>
</svg>
