<svg xmlns="http://www.w3.org/2000/svg" xmlns:xlink="http://www.w3.org/1999/xlink"><defs><symbol viewBox="0 0 50 50" fill="none" id="author">
<path d="M25.0802 24.2015C22.5434 24.2015 20.4795 22.1375 20.4795 19.6007C20.4795 17.0639 22.5434 15 25.0802 15C27.617 15 29.681 17.0639 29.681 19.6007C29.681 22.1375 27.617 24.2015 25.0802 24.2015ZM25.0802 15.8598C23.0176 15.8598 21.3393 17.5381 21.3393 19.6007C21.3393 21.6634 23.0176 23.3417 25.0802 23.3417C27.1429 23.3417 28.8212 21.6634 28.8212 19.6007C28.8212 17.5381 27.1429 15.8598 25.0802 15.8598Z" fill="white" stroke="none" />
<path d="M33.1597 35H32.3C32.3 31.0188 29.0611 27.78 25.0799 27.78C21.0986 27.78 17.8598 31.0188 17.8598 35H17C17 30.545 20.6244 26.9202 25.0799 26.9202C29.5353 26.9202 33.1597 30.5446 33.1597 35Z" fill="white" stroke="none" />
<circle cx="25" cy="25" r="24.5" />
</symbol><symbol viewBox="0 0 49 50" fill="none" id="call">
<path d="M29.7203 35C29.6424 35 29.5547 35 29.4665 34.9942C27.9432 34.8967 26.5503 34.3113 25.5064 33.8123C22.689 32.4484 20.2215 30.5159 18.1711 28.0685C16.48 26.0305 15.3426 24.1342 14.5894 22.0998C14.1153 20.8289 13.939 19.8295 14.0183 18.8608C14.0766 18.1806 14.3383 17.6171 14.8191 17.1363L16.4893 15.4661C16.8143 15.1611 17.1758 15 17.5341 15C17.8969 15 18.2513 15.1629 18.5598 15.471L18.5691 15.4803C18.8576 15.7501 19.1322 16.0279 19.4559 16.3622C19.5311 16.4396 19.6077 16.5175 19.6847 16.5959C19.7612 16.6738 19.8387 16.7521 19.9157 16.8318L21.2423 18.1584C21.9318 18.8479 21.9318 19.6078 21.2423 20.2974C21.1951 20.3446 21.1488 20.3913 21.1025 20.4385C21.0121 20.5302 20.9186 20.6246 20.8229 20.7171C20.3862 21.1641 20.0092 21.5389 19.5934 21.9128L19.5774 21.9289C19.3544 22.1519 19.3539 22.3308 19.4332 22.5824L19.4416 22.6077C19.7639 23.3841 20.2242 24.1337 20.9302 25.0329L20.9324 25.0352L20.9471 25.053C22.263 26.6738 23.6421 27.9296 25.1628 28.8911C25.344 29.006 25.5367 29.1021 25.7228 29.1952C25.9026 29.2851 26.0727 29.3701 26.2276 29.4654C26.2454 29.4752 26.2601 29.4845 26.2708 29.4912L26.2721 29.4921C26.3705 29.5402 26.4577 29.5624 26.5463 29.5624C26.7658 29.5624 26.91 29.4182 26.9714 29.3567L28.6363 27.6919C28.9604 27.3678 29.3237 27.1964 29.6865 27.1964C30.1784 27.1964 30.5358 27.5009 30.709 27.6887L33.3946 30.3744C34.069 31.0421 34.0744 31.8243 33.4084 32.5187C33.2455 32.6941 33.0834 32.8517 32.9116 33.0186L32.7981 33.129C32.499 33.4144 32.182 33.7255 31.8904 34.0687L31.8762 34.0848C31.3001 34.7004 30.595 35 29.7203 35ZM17.1037 16.1111L15.4486 17.7658C15.1178 18.0965 14.9455 18.4678 14.9055 18.9347C14.8374 19.7654 14.9972 20.6459 15.4241 21.7886C16.1417 23.7273 17.2314 25.5409 18.8549 27.4978C20.8225 29.8469 23.1907 31.7018 25.8924 33.0097C26.8615 33.4731 28.1524 34.0175 29.5244 34.1052C29.5836 34.1092 29.6531 34.1092 29.7198 34.1092C30.348 34.1092 30.8105 33.916 31.2182 33.4834C31.5339 33.113 31.8673 32.7853 32.1811 32.4858L32.2902 32.3798C32.4255 32.2485 32.5546 32.123 32.6788 31.9934L32.7389 31.7691L32.8805 31.7682C33.0852 31.4962 33.0474 31.2829 32.7661 31.0047L30.0582 28.2959C30.0007 28.2327 29.8489 28.0858 29.686 28.0858C29.568 28.0858 29.4149 28.1713 29.2658 28.3204L27.6009 29.9853C27.2915 30.2947 26.9367 30.4518 26.5459 30.4518C26.3148 30.4518 26.0918 30.3966 25.8648 30.2831C25.8363 30.2689 25.8136 30.2546 25.7989 30.2453L25.7709 30.2288C25.6471 30.1518 25.4904 30.0735 25.3248 29.9907C25.1285 29.8923 24.9055 29.781 24.6865 29.6421C23.0888 28.6316 21.6438 27.3193 20.2705 25.6308L20.2634 25.6237L20.2469 25.6032C19.4741 24.6221 18.9702 23.7981 18.6127 22.9318L18.5851 22.8521C18.5152 22.6309 18.3038 21.9623 18.9266 21.3199C18.9515 21.2901 18.9746 21.27 18.9884 21.2585L18.9902 21.2571C19.3931 20.8957 19.7617 20.5293 20.1908 20.0895L20.2002 20.0801C20.2901 19.9933 20.3773 19.9052 20.4699 19.8117C20.5176 19.7636 20.5652 19.7155 20.6133 19.667C20.7303 19.5499 20.8701 19.3786 20.8701 19.2272C20.8701 19.0759 20.7303 18.9045 20.6133 18.7874L19.2796 17.4533C19.203 17.3745 19.1264 17.2966 19.0508 17.2196C18.972 17.1394 18.8941 17.0602 18.8171 16.9809C18.5006 16.6542 18.2335 16.3835 17.9566 16.1249L17.9312 16.1C17.835 16.0038 17.6886 15.8894 17.535 15.8894C17.4095 15.8903 17.2568 15.9687 17.1037 16.1111Z" fill="#888888" stroke="none" />
<path d="M24.1228 0.499999C37.1526 0.499998 47.7456 11.452 47.7456 25C47.7456 38.548 37.1526 49.5 24.1228 49.5C11.093 49.5 0.499999 38.548 0.499999 25C0.499998 11.452 11.093 0.5 24.1228 0.499999Z" />
</symbol><symbol viewBox="0 0 50 50" fill="none" id="copywrite">
<path d="M25.0001 35C23.6504 35 22.3408 34.7356 21.1075 34.214C19.9166 33.7102 18.8474 32.9893 17.929 32.0712C17.0109 31.1531 16.2898 30.0837 15.7863 28.8927C15.2644 27.6594 15 26.3499 15 25.0001C15 23.6504 15.2644 22.3408 15.786 21.1075C16.2898 19.9166 17.0107 18.8474 17.9288 17.929C18.8469 17.0109 19.9163 16.2898 21.1073 15.7863C22.3406 15.2644 23.6504 15 25.0001 15C26.3499 15 27.6594 15.2644 28.8927 15.786C30.0837 16.2898 31.1529 17.0107 32.0712 17.9288C32.9893 18.8469 33.7104 19.9163 34.214 21.1073C34.7356 22.3406 35 23.6501 35 24.9999C35 26.3496 34.7356 27.6592 34.214 28.8925C33.7102 30.0834 32.9893 31.1526 32.0712 32.071C31.1531 32.9891 30.0837 33.7102 28.8927 34.2137C27.6594 34.7356 26.3499 35 25.0001 35ZM25.0001 16.203C22.6502 16.203 20.4413 17.118 18.7798 18.7795C17.118 20.4411 16.203 22.6502 16.203 25.0001C16.203 27.35 17.118 29.5589 18.7795 31.2205C20.4411 32.882 22.6502 33.797 24.9999 33.797C27.3498 33.797 29.5589 32.882 31.2202 31.2205C32.8816 29.5589 33.797 27.3498 33.797 25.0001C33.797 22.6502 32.882 20.4413 31.2205 18.7798C29.5589 17.118 27.3498 16.203 25.0001 16.203Z" fill="#888888" stroke="none" />
<path d="M27.9596 23.5764C27.4284 22.4764 26.3014 21.7157 25.0001 21.7157C23.1891 21.7157 21.7157 23.1891 21.7157 25.0001C21.7157 26.811 23.1891 28.2844 25.0001 28.2844C26.3012 28.2844 27.4281 27.5237 27.9596 26.4237L29.0435 26.945C28.3176 28.448 26.7778 29.4872 25.0001 29.4872C22.5258 29.4872 20.5127 27.4741 20.5127 24.9998C20.5127 22.5255 22.5258 20.5125 25.0001 20.5125C26.7778 20.5125 28.3176 21.5518 29.0435 23.0546L27.9596 23.5764Z" fill="#888888" stroke="none" />
<circle cx="25" cy="25" r="24.5" />
</symbol><symbol viewBox="0 0 49 50" fill="none" id="facebook">
<path d="M24.9664 35H21.7148C21.2556 35 20.882 34.6264 20.882 34.1673V26.681H18.8327C18.3736 26.681 18 26.3074 18 25.8483V22.7061C18 22.2465 18.3736 21.8729 18.8327 21.8729H20.8816V20.1471C20.8816 18.627 21.3567 17.3365 22.2555 16.4142C23.1573 15.4888 24.4204 15 25.9091 15L28.3887 15.004C28.8469 15.0049 29.2201 15.3785 29.2201 15.8367V18.7547C29.2201 19.2138 28.8465 19.5874 28.3873 19.5874L26.7179 19.5878C26.3084 19.5878 26.0456 19.6499 25.9374 19.7726C25.843 19.8795 25.7991 20.1033 25.7991 20.4769V21.872H28.2708C28.4906 21.872 28.7051 21.9611 28.8602 22.1166C29.0171 22.274 29.104 22.4832 29.104 22.7052L29.1026 25.8478C29.1026 26.3069 28.729 26.6806 28.2699 26.6806H25.7991V34.1664C25.7991 34.626 25.4255 35 24.9664 35ZM21.7684 34.1136H24.9128V25.7946H28.2163L28.2176 22.7588H24.9128V20.4773C24.9128 20.0408 24.9558 19.5462 25.2731 19.1863C25.6564 18.752 26.2813 18.7019 26.7179 18.7019L28.3337 18.7015V15.8904L25.9086 15.8864C24.6655 15.8864 23.6213 16.283 22.8905 17.0329C22.1566 17.7863 21.7684 18.8628 21.7684 20.1471V22.7593H18.8864V25.7951H21.7684V34.1136Z" fill="#888888" stroke="none" />
<path d="M24.1228 0.499999C37.1526 0.499998 47.7456 11.452 47.7456 25C47.7456 38.548 37.1526 49.5 24.1228 49.5C11.093 49.5 0.499999 38.548 0.499999 25C0.499998 11.452 11.093 0.5 24.1228 0.499999Z" />
</symbol><symbol viewBox="0 0 50 50" fill="none" id="home">
<path d="M32.4744 35H27.1614C26.7138 35 26.3497 34.6358 26.3497 34.1883V28.0631H23.5986V34.1883C23.5986 34.6358 23.2344 35 22.7868 35H17.4733C17.0258 35 16.6616 34.6358 16.6616 34.1883V23.5832L15.5853 24.5459L15 23.8921L24.9412 15L32.4091 21.6785V21.675L34.9482 23.9491L34.3629 24.6029L34.3625 24.6025L33.2862 23.6403V34.1874C33.2866 34.6358 32.9224 35 32.4744 35ZM27.2272 34.1225H32.4091V22.8557L24.9412 16.1772L17.5392 22.7983V34.122H22.721V27.9968C22.721 27.5493 23.0852 27.1851 23.5328 27.1851H26.415C26.8626 27.1851 27.2268 27.5493 27.2268 27.9968V34.1225H27.2272Z" fill="#ffffff" stroke="none" />
<circle cx="25" cy="25" r="24.5" />
</symbol><symbol viewBox="0 0 49 50" fill="none" id="instagram">
<path d="M24.0002 30.3686C21.0402 30.3686 18.6318 27.9603 18.6318 25.0006C18.6318 22.0405 21.0402 19.6322 24.0002 19.6322C26.9603 19.6322 29.3686 22.0405 29.3686 25.0006C29.3686 27.9603 26.9603 30.3686 24.0002 30.3686ZM24.0002 20.5181C21.529 20.5181 19.5182 22.5289 19.5182 25.0002C19.5182 27.4714 21.529 29.4817 24.0002 29.4817C26.4715 29.4817 28.4823 27.4714 28.4823 25.0002C28.4823 22.5289 26.4715 20.5181 24.0002 20.5181Z" fill="#888888" stroke="none" />
<path d="M29.9007 20.6941C29.457 20.6941 29.0227 20.5142 28.7089 20.2004C28.3942 19.8858 28.2139 19.451 28.2139 19.0074C28.2139 18.5619 28.3947 18.1267 28.7098 17.8134C29.0209 17.5005 29.4557 17.3206 29.9007 17.3206C30.3465 17.3206 30.7817 17.5009 31.0942 17.8152C31.4071 18.1263 31.5875 18.5615 31.5875 19.0074C31.5875 19.4519 31.4075 19.8866 31.0937 20.2004C30.7777 20.5147 30.3434 20.6941 29.9007 20.6941ZM29.9007 18.2069C29.6897 18.2069 29.4841 18.292 29.3365 18.4405C29.1858 18.5903 29.1003 18.7964 29.1003 19.0074C29.1003 19.2174 29.1862 19.424 29.3356 19.5738C29.4845 19.7227 29.6906 19.8082 29.9007 19.8082C30.1107 19.8082 30.3177 19.7227 30.4675 19.5733C30.6155 19.4253 30.7011 19.2188 30.7011 19.0078C30.7011 18.7959 30.616 18.5899 30.4675 18.4423C30.3186 18.292 30.1125 18.2069 29.9007 18.2069Z" fill="#888888" stroke="none" />
<path d="M29.206 35H18.794C17.5154 35 16.3121 34.501 15.4054 33.5946C14.499 32.6883 14 31.485 14 30.206V19.794C14 17.1508 16.1504 15 18.794 15H29.206C31.8496 15 34 17.1508 34 19.794V30.206C34.0004 32.8496 31.8496 35 29.206 35ZM18.794 15.8864C16.6392 15.8864 14.8864 17.6392 14.8864 19.794V30.206C14.8864 31.2479 15.2932 32.2287 16.0325 32.968C16.7717 33.7072 17.7521 34.1141 18.794 34.1141H29.206C31.3501 34.1141 33.0963 32.3785 33.1136 30.2383V19.794C33.1136 17.6392 31.3608 15.8864 29.206 15.8864H18.794Z" fill="#888888" stroke="none" />
<path d="M24.1228 0.499999C37.1526 0.499998 47.7456 11.452 47.7456 25C47.7456 38.548 37.1526 49.5 24.1228 49.5C11.093 49.5 0.499999 38.548 0.499999 25C0.499998 11.452 11.093 0.5 24.1228 0.499999Z" />
</symbol><symbol viewBox="0 0 50 50" fill="none" id="planet">
<path d="M24.9998 35C22.329 35 19.8179 33.9599 17.9288 32.0708C16.0401 30.1821 15 27.671 15 24.9998C15 22.329 16.0401 19.8179 17.9292 17.9288C19.8179 16.0401 22.329 15 24.9998 15C27.6706 15 30.1817 16.0401 32.0708 17.9292C33.9594 19.8179 35 22.3294 35 25.0002C35 27.671 33.9599 30.1821 32.0708 32.0712C30.1821 33.9599 27.671 35 24.9998 35ZM24.9998 15.873C19.9672 15.873 15.873 19.9672 15.873 24.9998C15.873 30.0324 19.9672 34.1266 24.9998 34.1266C30.0324 34.1266 34.1266 30.0324 34.1266 24.9998C34.1266 19.9672 30.0324 15.873 24.9998 15.873Z" fill="white" stroke="none" />
<path d="M25.4364 15.4365H24.5635V34.5636H25.4364V15.4365Z" fill="white" stroke="none" />
<path d="M33.4019 19.9907H16.5991V20.8637H33.4019V19.9907Z" fill="white" stroke="none" />
<path d="M34.5636 24.5632H15.4365V25.4362H34.5636V24.5632Z" fill="white" stroke="none" />
<path d="M33.4019 29.1504H16.5991V30.0234H33.4019V29.1504Z" fill="white" stroke="none" />
<path d="M19.1607 25.0042C19.1297 21.6049 20.4758 18.3291 23.161 15.2676L23.8175 15.8433C21.2781 18.7385 20.0053 21.8183 20.0341 24.9963L19.1607 25.0042Z" fill="white" stroke="none" />
<path d="M23.1615 34.7324C20.4763 31.671 19.1306 28.3952 19.1612 24.9958L20.0341 25.0037C20.0053 28.1817 21.2781 31.2615 23.8175 34.1567L23.1615 34.7324Z" fill="white" stroke="none" />
<path d="M30.838 25.0042L29.9651 24.9963C29.9939 21.8183 28.7211 18.7385 26.1816 15.8433L26.8381 15.2676C29.5229 18.3291 30.869 21.6049 30.838 25.0042Z" fill="white" stroke="none" />
<path d="M26.8386 34.7324L26.1821 34.1567C28.7216 31.2615 29.9943 28.1817 29.9655 25.0037L30.8385 24.9958C30.8699 28.3952 29.5238 31.671 26.8386 34.7324Z" fill="white" stroke="none" />
<circle cx="25" cy="25" r="24.5" />
</symbol></defs></svg>