<svg xmlns="http://www.w3.org/2000/svg" xmlns:xlink="http://www.w3.org/1999/xlink"><defs><symbol viewBox="0 0 50 50" fill="none" id="author">
<path d="M25.0802 24.2015C22.5434 24.2015 20.4795 22.1375 20.4795 19.6007C20.4795 17.0639 22.5434 15 25.0802 15C27.617 15 29.681 17.0639 29.681 19.6007C29.681 22.1375 27.617 24.2015 25.0802 24.2015ZM25.0802 15.8598C23.0176 15.8598 21.3393 17.5381 21.3393 19.6007C21.3393 21.6634 23.0176 23.3417 25.0802 23.3417C27.1429 23.3417 28.8212 21.6634 28.8212 19.6007C28.8212 17.5381 27.1429 15.8598 25.0802 15.8598Z" fill="white" stroke="none" />
<path d="M33.1597 35H32.3C32.3 31.0188 29.0611 27.78 25.0799 27.78C21.0986 27.78 17.8598 31.0188 17.8598 35H17C17 30.545 20.6244 26.9202 25.0799 26.9202C29.5353 26.9202 33.1597 30.5446 33.1597 35Z" fill="white" stroke="none" />
<circle cx="25" cy="25" r="24.5" />
</symbol><symbol viewBox="0 0 50 50" fill="none" id="copywrite">
<path d="M25.0001 35C23.6504 35 22.3408 34.7356 21.1075 34.214C19.9166 33.7102 18.8474 32.9893 17.929 32.0712C17.0109 31.1531 16.2898 30.0837 15.7863 28.8927C15.2644 27.6594 15 26.3499 15 25.0001C15 23.6504 15.2644 22.3408 15.786 21.1075C16.2898 19.9166 17.0107 18.8474 17.9288 17.929C18.8469 17.0109 19.9163 16.2898 21.1073 15.7863C22.3406 15.2644 23.6504 15 25.0001 15C26.3499 15 27.6594 15.2644 28.8927 15.786C30.0837 16.2898 31.1529 17.0107 32.0712 17.9288C32.9893 18.8469 33.7104 19.9163 34.214 21.1073C34.7356 22.3406 35 23.6501 35 24.9999C35 26.3496 34.7356 27.6592 34.214 28.8925C33.7102 30.0834 32.9893 31.1526 32.0712 32.071C31.1531 32.9891 30.0837 33.7102 28.8927 34.2137C27.6594 34.7356 26.3499 35 25.0001 35ZM25.0001 16.203C22.6502 16.203 20.4413 17.118 18.7798 18.7795C17.118 20.4411 16.203 22.6502 16.203 25.0001C16.203 27.35 17.118 29.5589 18.7795 31.2205C20.4411 32.882 22.6502 33.797 24.9999 33.797C27.3498 33.797 29.5589 32.882 31.2202 31.2205C32.8816 29.5589 33.797 27.3498 33.797 25.0001C33.797 22.6502 32.882 20.4413 31.2205 18.7798C29.5589 17.118 27.3498 16.203 25.0001 16.203Z" fill="#888888" stroke="none" />
<path d="M27.9596 23.5764C27.4284 22.4764 26.3014 21.7157 25.0001 21.7157C23.1891 21.7157 21.7157 23.1891 21.7157 25.0001C21.7157 26.811 23.1891 28.2844 25.0001 28.2844C26.3012 28.2844 27.4281 27.5237 27.9596 26.4237L29.0435 26.945C28.3176 28.448 26.7778 29.4872 25.0001 29.4872C22.5258 29.4872 20.5127 27.4741 20.5127 24.9998C20.5127 22.5255 22.5258 20.5125 25.0001 20.5125C26.7778 20.5125 28.3176 21.5518 29.0435 23.0546L27.9596 23.5764Z" fill="#888888" stroke="none" />
<circle cx="25" cy="25" r="24.5" />
</symbol><symbol viewBox="0 0 50 50" fill="none" id="home">
<path d="M32.4744 35H27.1614C26.7138 35 26.3497 34.6358 26.3497 34.1883V28.0631H23.5986V34.1883C23.5986 34.6358 23.2344 35 22.7868 35H17.4733C17.0258 35 16.6616 34.6358 16.6616 34.1883V23.5832L15.5853 24.5459L15 23.8921L24.9412 15L32.4091 21.6785V21.675L34.9482 23.9491L34.3629 24.6029L34.3625 24.6025L33.2862 23.6403V34.1874C33.2866 34.6358 32.9224 35 32.4744 35ZM27.2272 34.1225H32.4091V22.8557L24.9412 16.1772L17.5392 22.7983V34.122H22.721V27.9968C22.721 27.5493 23.0852 27.1851 23.5328 27.1851H26.415C26.8626 27.1851 27.2268 27.5493 27.2268 27.9968V34.1225H27.2272Z" fill="#ffffff" stroke="none" />
<circle cx="25" cy="25" r="24.5" />
</symbol><symbol viewBox="0 0 50 50" fill="none" id="planet">
<path d="M24.9998 35C22.329 35 19.8179 33.9599 17.9288 32.0708C16.0401 30.1821 15 27.671 15 24.9998C15 22.329 16.0401 19.8179 17.9292 17.9288C19.8179 16.0401 22.329 15 24.9998 15C27.6706 15 30.1817 16.0401 32.0708 17.9292C33.9594 19.8179 35 22.3294 35 25.0002C35 27.671 33.9599 30.1821 32.0708 32.0712C30.1821 33.9599 27.671 35 24.9998 35ZM24.9998 15.873C19.9672 15.873 15.873 19.9672 15.873 24.9998C15.873 30.0324 19.9672 34.1266 24.9998 34.1266C30.0324 34.1266 34.1266 30.0324 34.1266 24.9998C34.1266 19.9672 30.0324 15.873 24.9998 15.873Z" fill="white" stroke="none" />
<path d="M25.4364 15.4365H24.5635V34.5636H25.4364V15.4365Z" fill="white" stroke="none" />
<path d="M33.4019 19.9907H16.5991V20.8637H33.4019V19.9907Z" fill="white" stroke="none" />
<path d="M34.5636 24.5632H15.4365V25.4362H34.5636V24.5632Z" fill="white" stroke="none" />
<path d="M33.4019 29.1504H16.5991V30.0234H33.4019V29.1504Z" fill="white" stroke="none" />
<path d="M19.1607 25.0042C19.1297 21.6049 20.4758 18.3291 23.161 15.2676L23.8175 15.8433C21.2781 18.7385 20.0053 21.8183 20.0341 24.9963L19.1607 25.0042Z" fill="white" stroke="none" />
<path d="M23.1615 34.7324C20.4763 31.671 19.1306 28.3952 19.1612 24.9958L20.0341 25.0037C20.0053 28.1817 21.2781 31.2615 23.8175 34.1567L23.1615 34.7324Z" fill="white" stroke="none" />
<path d="M30.838 25.0042L29.9651 24.9963C29.9939 21.8183 28.7211 18.7385 26.1816 15.8433L26.8381 15.2676C29.5229 18.3291 30.869 21.6049 30.838 25.0042Z" fill="white" stroke="none" />
<path d="M26.8386 34.7324L26.1821 34.1567C28.7216 31.2615 29.9943 28.1817 29.9655 25.0037L30.8385 24.9958C30.8699 28.3952 29.5238 31.671 26.8386 34.7324Z" fill="white" stroke="none" />
<circle cx="25" cy="25" r="24.5" />
</symbol></defs></svg>