<svg xmlns="http://www.w3.org/2000/svg" xmlns:xlink="http://www.w3.org/1999/xlink"><defs><symbol viewBox="0 0 50 50" fill="none" id="about">
<path d="M20.75 34.57H23.1213H29.2788V33.8825H28.6312C27.6747 33.8825 26.9075 33.1053 26.9075 32.1588V23.0122H23.1213H20.75V23.6997H21.3976C22.3541 23.6997 23.1213 24.4769 23.1213 25.4234V32.1488C23.1213 33.1053 22.3442 33.8725 21.3976 33.8725H20.75V34.57Z" stroke-width="0.9" stroke-miterlimit="10" />
<path d="M24.6452 20.601C26.0759 20.601 27.2357 19.4412 27.2357 18.0105C27.2357 16.5797 26.0759 15.4199 24.6452 15.4199C23.2145 15.4199 22.0547 16.5797 22.0547 18.0105C22.0547 19.4412 23.2145 20.601 24.6452 20.601Z" stroke-width="0.9" stroke-miterlimit="10" />
<circle cx="25" cy="25" r="24.5" />
</symbol><symbol viewBox="0 0 21 12" fill="none" id="arrow-down">
<path d="M20 1L10.5 10.5L1 1" />
</symbol><symbol viewBox="0 0 50 50" fill="none" id="author">
<path d="M24.5254 23.7302C26.8069 23.7302 28.6564 21.8722 28.6564 19.5802C28.6564 17.2882 26.8069 15.4302 24.5254 15.4302C22.244 15.4302 20.3945 17.2882 20.3945 19.5802C20.3945 21.8722 22.244 23.7302 24.5254 23.7302Z" stroke-width="0.9" stroke-miterlimit="10" />
<path d="M16.9004 34.9704C16.9004 30.7704 20.2947 27.3604 24.4754 27.3604C28.6561 27.3604 32.0504 30.7704 32.0504 34.9704" stroke-width="0.9" stroke-miterlimit="10" />
<circle cx="25" cy="25" r="24.5" />
</symbol><symbol viewBox="0 0 50 50" fill="none" id="back">
<circle cx="25" cy="25" r="24.5" />
<path d="M30 15L20 25L30 35" />
</symbol><symbol viewBox="0 0 50 50" fill="none" id="blog">
<path d="M25.7004 34.5802H24.2539C20.0292 34.5802 16.5996 31.1506 16.5996 26.9259V17.0013C16.5996 16.1295 17.3085 15.4302 18.1707 15.4302C19.0425 15.4302 19.7418 16.1391 19.7418 17.0013V26.9259C19.7418 29.4167 21.7631 31.438 24.2539 31.438H25.7004C28.1912 31.438 30.2125 29.4167 30.2125 26.9259V26.8589C30.2125 24.3681 28.1912 22.3468 25.7004 22.3468H24.1197C23.248 22.3468 22.5487 21.6379 22.5487 20.7757C22.5487 19.9039 23.2576 19.2046 24.1197 19.2046H25.7004C29.9251 19.2046 33.3547 22.6342 33.3547 26.8589V26.9259C33.3547 31.1602 29.9251 34.5802 25.7004 34.5802Z" stroke-width="0.9" stroke-miterlimit="10" />
<circle cx="25" cy="25" r="24.5" />
</symbol><symbol viewBox="0 0 50 50" fill="none" id="buy">
<path d="M23.5001 15.22L17.8301 24.7237" stroke-width="0.9" stroke-miterlimit="10" />
<path d="M37.2298 23.3344C37.2298 22.6096 36.6498 22.0256 35.9298 22.0256H25.0198H14.0998C13.3798 22.0256 12.7998 22.6096 12.7998 23.3344C12.7998 24.0593 13.3798 24.6432 14.0998 24.6432H14.4498L16.8298 33.9859C16.9198 34.3483 17.2498 34.6 17.6198 34.6H24.9498H32.4198C32.7898 34.6 33.1198 34.3483 33.2098 33.9859L35.5898 24.6432H35.9398C36.6498 24.6432 37.2298 24.0593 37.2298 23.3344Z" stroke-width="0.9" stroke-miterlimit="10" />
<path d="M26.5195 15.23L32.1795 24.7337" stroke-width="0.9" stroke-miterlimit="10" />
<circle cx="25" cy="25" r="24.5" />
</symbol><symbol viewBox="0 0 49 50" fill="none" id="call">
<path d="M33.1103 32.2331C33.1103 32.2331 33.1103 32.2427 33.1103 32.2331C32.9187 32.4343 32.7271 32.6259 32.5163 32.8271C32.2002 33.1336 31.8745 33.4498 31.5775 33.8042C31.0889 34.3311 30.5046 34.5802 29.7382 34.5802C29.6616 34.5802 29.5849 34.5802 29.5179 34.5706C28.0713 34.4748 26.7206 33.9096 25.7147 33.4306C22.9557 32.0894 20.5224 30.1926 18.5107 27.7881C16.8438 25.7859 15.7325 23.9274 14.9949 21.9349C14.5351 20.7278 14.3722 19.7794 14.4393 18.8885C14.4872 18.3137 14.7075 17.8443 15.1099 17.4419L16.7767 15.775C17.0162 15.5451 17.2749 15.4302 17.524 15.4302C17.8305 15.4302 18.0796 15.6122 18.2329 15.775C18.2424 15.775 18.2424 15.775 18.252 15.7846C18.549 16.0624 18.8364 16.3498 19.1334 16.6564C19.2771 16.8097 19.4399 16.9725 19.5932 17.1258L20.9248 18.4574C21.4421 18.9747 21.4421 19.4537 20.9248 19.971C20.7811 20.1147 20.647 20.2584 20.5033 20.3925C20.0913 20.814 19.7082 21.2068 19.2771 21.59C19.2675 21.5996 19.2579 21.5996 19.2579 21.6091C18.8364 22.0307 18.913 22.4426 18.9993 22.7204C19.0088 22.7396 19.0088 22.7491 19.0184 22.7683C19.3633 23.6113 19.8519 24.3969 20.5991 25.3453L20.6087 25.3548C21.9594 27.0121 23.3772 28.3054 24.9387 29.3017C25.1399 29.4262 25.3411 29.5316 25.5422 29.6274C25.7147 29.7136 25.8871 29.7999 26.0212 29.8861C26.0404 29.8957 26.0596 29.9148 26.0787 29.9244C26.2416 30.0106 26.4044 30.0489 26.5577 30.0489C26.9601 30.0489 27.2187 29.7999 27.2953 29.7136L28.9622 28.0468C29.1251 27.8839 29.3933 27.6827 29.6999 27.6827C30.0064 27.6827 30.2555 27.8743 30.3992 28.0372C30.4088 28.0468 30.4088 28.0468 30.4088 28.0468L33.1007 30.7387C33.6084 31.2081 33.6084 31.7158 33.1103 32.2331Z" stroke-width="0.9" stroke-miterlimit="10" />
<path d="M24.1228 0.499999C37.1526 0.499998 47.7456 11.452 47.7456 25C47.7456 38.548 37.1526 49.5 24.1228 49.5C11.093 49.5 0.499999 38.548 0.499999 25C0.499998 11.452 11.093 0.5 24.1228 0.499999Z" />
</symbol><symbol viewBox="0 0 50 50" fill="none" id="copywrite">
<path d="M25.0047 34.5699C23.7121 34.5699 22.4577 34.321 21.28 33.8135C20.1406 33.3347 19.1161 32.6453 18.2352 31.7644C17.3543 30.8835 16.6649 29.859 16.1861 28.7196C15.6882 27.5419 15.4297 26.2875 15.4297 24.9949C15.4297 23.7023 15.6786 22.448 16.1861 21.2702C16.6649 20.1308 17.3543 19.1063 18.2352 18.2254C19.1161 17.3445 20.1406 16.6551 21.28 16.1763C22.4577 15.6784 23.7121 15.4199 25.0047 15.4199C26.2973 15.4199 27.5516 15.6689 28.7294 16.1763C29.8688 16.6551 30.8933 17.3445 31.7742 18.2254C32.6551 19.1063 33.3445 20.1308 33.8233 21.2702C34.3212 22.448 34.5797 23.7023 34.5797 24.9949C34.5797 26.2875 34.3307 27.5419 33.8233 28.7196C33.3445 29.859 32.6551 30.8835 31.7742 31.7644C30.8933 32.6453 29.8688 33.3347 28.7294 33.8135C27.5421 34.321 26.2877 34.5699 25.0047 34.5699Z" stroke-width="0.9" stroke-miterlimit="10" />
<path d="M28.8726 26.8621C28.1736 28.2984 26.699 29.2942 25.0043 29.2942C22.6392 29.2942 20.7051 27.3696 20.7051 24.995C20.7051 22.6204 22.6297 20.6958 25.0043 20.6958C26.7086 20.6958 28.1832 21.6916 28.8726 23.1279" stroke-width="0.9" stroke-miterlimit="10" />
<circle cx="25" cy="25" r="24.5" />
</symbol><symbol viewBox="0 0 42 42" fill="none" id="courier">
<path d="M8.53223 28.5803V3.37868C8.53223 2.29707 9.39029 1.41211 10.439 1.41211H38.6692C39.718 1.41211 40.576 2.29707 40.576 3.37868V30.8221C40.576 31.9038 39.718 32.7887 38.6692 32.7887H34.4552" stroke="white" stroke-width="0.9" stroke-miterlimit="10" />
<path d="M28.3057 1.42188V8.14754C28.3057 8.68834 27.8767 9.13082 27.3523 9.13082H21.7845C21.2601 9.13082 20.8311 8.68834 20.8311 8.14754V1.42188" stroke="white" stroke-width="0.9" stroke-miterlimit="10" />
<path d="M24.5585 27.2231C24.5585 29.4945 30.6126 32.5132 34.3786 31.4021C34.4358 31.3824 34.493 31.4316 34.5025 31.4906C34.8839 34.7747 32.1285 35.1484 29.0586 34.7747C26.8372 36.9576 24.7778 39.0422 20.907 40.3795C20.1061 40.6548 19.2386 40.6646 18.4472 40.3696C15.7205 39.347 13.4133 37.3706 12.4503 36.4463C10.3624 37.1641 8.82742 37.7639 7.06363 38.2654C4.92801 36.4463 2.3729 33.7718 1 30.3205C14.6622 29.5043 15.997 18.5702 30.3171 25.404C30.7366 25.6105 30.9082 26.1612 30.6508 26.5643C28.5342 29.7993 25.102 26.1808 20.2492 27.0265" stroke="white" stroke-width="0.9" stroke-miterlimit="10" />
</symbol><symbol viewBox="0 0 50 50" fill="none" id="delivery">
<path d="M33.5102 30.9323H35.0191C35.3798 30.9323 35.6815 30.6484 35.6815 30.2936V24.9996C35.6815 23.6229 35.2694 22.4662 34.4965 21.6643C33.7679 20.905 32.7374 20.4863 31.5818 20.4863H28.8144V19.0386C28.8144 18.6909 28.5199 18.3999 28.1519 18.3999H14.9622C14.6016 18.3999 14.2998 18.6838 14.2998 19.0386V28.0724" stroke-width="0.9" stroke-miterlimit="10" />
<path d="M21.2998 30.9331H28.1596H29.2195" stroke-width="0.9" stroke-miterlimit="10" />
<path d="M14.3076 28.0742V30.2954C14.3076 30.6431 14.602 30.9341 14.97 30.9341H16.9353C16.95 30.9341 16.9647 30.9341 16.9794 30.9341" stroke-width="0.9" stroke-miterlimit="10" />
<path d="M21.2998 30.8985C21.0937 31.8707 20.2031 32.6016 19.1358 32.6016C17.914 32.6016 16.9277 31.6507 16.9277 30.4727C16.9277 29.2947 17.914 28.3438 19.1358 28.3438C20.3576 28.3438 21.3439 29.2947 21.3439 30.4727C21.3439 30.6146 21.3292 30.7566 21.2998 30.8985Z" stroke-width="0.9" stroke-miterlimit="10" />
<path d="M31.3536 32.5958C32.5731 32.5958 33.5617 31.6426 33.5617 30.4668C33.5617 29.2911 32.5731 28.3379 31.3536 28.3379C30.1341 28.3379 29.1455 29.2911 29.1455 30.4668C29.1455 31.6426 30.1341 32.5958 31.3536 32.5958Z" stroke-width="0.9" stroke-miterlimit="10" />
<path d="M16.9277 23.9858H23.2797" stroke-width="0.9" stroke-miterlimit="10" />
<path d="M21.1524 26.0513L23.2795 23.9862L21.1377 21.9141" stroke-width="0.9" stroke-miterlimit="10" />
<circle cx="25" cy="25" r="24.5" />
</symbol><symbol viewBox="0 0 55 55" fill="none" id="download">
<path d="M28.2808 14.5V32.428" stroke-miterlimit="10" />
<path d="M40.2615 31.5518V38.0198C40.2615 38.2838 40.0389 38.4998 39.7669 38.4998H28.2808H28.2684H16.7946C16.5226 38.4998 16.3 38.2838 16.3 38.0198V31.5518" stroke-miterlimit="10" />
<path d="M34.4504 26.4399L28.627 32.0919C28.4415 32.2719 28.1201 32.2719 27.9346 32.0919L22.1235 26.4399" stroke-miterlimit="10" />
<circle cx="27.5" cy="27.5" r="27" />
</symbol><symbol viewBox="0 0 50 50" fill="none" id="epub">
<path d="M23.5104 24.716L24.3945 25.6254C24.8133 26.0562 25.4926 26.0562 25.9114 25.6254L29.6991 21.7294C30.1551 21.2603 30.1551 20.5041 29.6991 20.035L25.6322 15.8518C25.1762 15.3827 24.441 15.3827 23.985 15.8518L15.842 24.2278C15.386 24.6969 15.386 25.4531 15.842 25.9222L23.985 34.2982C24.441 34.7673 25.1762 34.7673 25.6322 34.2982L34.65 25.0128" stroke-width="0.9" stroke-miterlimit="10" />
<circle cx="25" cy="25" r="24.5" />
</symbol><symbol viewBox="0 0 49 50" fill="none" id="facebook">
<path d="M28.7624 15.4302H26.2837C23.4988 15.4302 21.69 17.2772 21.69 20.1387V22.3112H19.1922C18.9721 22.3112 18.7998 22.4834 18.7998 22.7035V25.8521C18.7998 26.0723 18.9721 26.2445 19.1922 26.2445H21.69V34.1878C21.69 34.4079 21.8623 34.5802 22.0824 34.5802H25.3363C25.5564 34.5802 25.7286 34.4079 25.7286 34.1878V26.2445H28.6476C28.8677 26.2445 29.0399 26.0723 29.0399 25.8521V22.7035C29.0399 22.5983 29.0017 22.5026 28.9251 22.426C28.8485 22.3494 28.7528 22.3112 28.6476 22.3112H25.7286V20.4641C25.7286 19.5836 25.9392 19.1338 27.0876 19.1338H28.7624C28.9825 19.1338 29.1548 18.9616 29.1548 18.7415V15.8226C29.1548 15.6024 28.9825 15.4302 28.7624 15.4302Z" stroke-width="0.9" stroke-miterlimit="10" />
<path d="M24.1228 0.499999C37.1526 0.499998 47.7456 11.452 47.7456 25C47.7456 38.548 37.1526 49.5 24.1228 49.5C11.093 49.5 0.499999 38.548 0.499999 25C0.499998 11.452 11.093 0.5 24.1228 0.499999Z" />
</symbol><symbol viewBox="0 0 13 23" fill="none" id="facebook.small">
<path d="M11.925 1H9.2069C6.15292 1 4.16942 3.02549 4.16942 6.16342V8.54573H1.43028C1.18891 8.54573 1 8.73463 1 8.97601V12.4288C1 12.6702 1.18891 12.8591 1.43028 12.8591H4.16942V21.5697C4.16942 21.8111 4.35832 22 4.5997 22H8.16792C8.40929 22 8.5982 21.8111 8.5982 21.5697V12.8591H11.7991C12.0405 12.8591 12.2294 12.6702 12.2294 12.4288V8.97601C12.2294 8.86057 12.1874 8.75562 12.1034 8.67166C12.0195 8.58771 11.9145 8.54573 11.7991 8.54573H8.5982V6.52024C8.5982 5.55472 8.82908 5.06147 10.0885 5.06147H11.925C12.1664 5.06147 12.3553 4.87256 12.3553 4.63118V1.43028C12.3553 1.18891 12.1664 1 11.925 1Z" stroke-width="0.9" stroke-miterlimit="10" />
</symbol><symbol viewBox="0 0 40 40" fill="none" id="female">
<path d="M16.7871 13.1323C16.7871 14.9147 18.2271 16.3547 19.9971 16.3547C21.7671 16.3547 23.1971 14.9046 23.1971 13.1323C23.1971 11.35 21.7571 9.8999 19.9971 9.8999C18.2271 9.8999 16.7871 11.35 16.7871 13.1323Z" stroke-width="0.85" stroke-miterlimit="10" />
<path d="M19.5567 20.0302L14.2667 29.2945C14.0767 29.6268 14.3167 30.0497 14.6967 30.0497H19.9867H25.2767C25.6567 30.0497 25.9067 29.6268 25.7067 29.2945L20.4167 20.0302C20.2367 19.6878 19.7567 19.6878 19.5567 20.0302Z" stroke-width="0.85" stroke-miterlimit="10" />
<rect x="0.5" y="0.5" width="39" height="39" rx="19.5" />
</symbol><symbol viewBox="0 0 50 50" fill="none" id="gift">
<circle cx="25" cy="25" r="24.5" />
<path d="M16.5361 24.6016V33.6375C16.5361 34.1651 16.9767 34.5968 17.5151 34.5968H22.5273H27.4221H32.4343C32.9727 34.5968 33.4133 34.1651 33.4133 33.6375V24.6112" stroke-width="0.9" stroke-miterlimit="10" />
<path d="M20.207 19.4409C19.3064 19.2682 18.6016 18.4241 18.6016 17.4457C18.6016 16.333 19.4924 15.4121 20.5595 15.4121C21.8027 15.4121 25.4249 18.2035 25.4249 19.1915C25.4249 18.2035 28.9785 15.4121 30.2903 15.4121C31.3573 15.4121 32.2482 16.285 32.2482 17.4457C32.2482 18.4241 31.5433 19.2682 30.6427 19.4505" stroke-width="0.9" stroke-miterlimit="10" />
<path d="M16.5361 24.6016H33.4231" stroke-width="0.9" stroke-miterlimit="10" />
<path d="M33.5795 24.6013H16.3793C15.8409 24.6013 15.4004 24.1696 15.4004 23.642V20.4094C15.4004 19.8818 15.8409 19.4502 16.3793 19.4502H33.5795C34.118 19.4502 34.5585 19.8818 34.5585 20.4094V23.642C34.5585 24.1696 34.118 24.6013 33.5795 24.6013Z" stroke-width="0.9" stroke-miterlimit="10" />
</symbol><symbol viewBox="0 0 20 20" fill="none" id="gift-without-circle">
<path d="M17.6976 19.9993H1.88831C1.46315 19.9993 1.11719 19.6533 1.11719 19.2281V9.60742H1.95083V19.1656H17.635V9.61117H18.4687V19.2281C18.4687 19.6533 18.1227 19.9993 17.6976 19.9993Z" fill="#888888" />
<path d="M14.992 4.87433L14.8273 4.05694C15.5343 3.9148 16.0678 3.22829 16.0678 2.46051C16.0678 1.551 15.4071 0.838648 14.5635 0.838648C14.0841 0.838648 13.0112 1.42553 11.9533 2.26585C10.6453 3.30541 10.2052 4.0311 10.2052 4.20283H9.37154C9.37154 4.0336 8.92554 3.31041 7.60087 2.26377C6.4121 1.32508 5.39921 0.833646 5.01324 0.833646C4.63935 0.833646 4.27796 0.989538 3.99619 1.27298C3.68774 1.58268 3.51226 2.01284 3.51434 2.453C3.51434 3.22287 4.04746 3.90897 4.75481 4.05152L4.59016 4.86891C4.06121 4.76262 3.57645 4.46042 3.22548 4.01859C2.8741 3.57592 2.6807 3.02113 2.6807 2.4555C2.67736 1.79734 2.94121 1.15127 3.40513 0.685257C3.84488 0.243425 4.41593 0 5.01324 0C5.79936 0 7.13236 0.831979 8.11773 1.61019C8.67878 2.05369 9.16646 2.50552 9.52743 2.91734C9.62413 3.0278 9.71041 3.13368 9.78628 3.23538C10.2615 2.58597 11.0263 1.93781 11.4344 1.61352C11.99 1.17211 12.5573 0.789463 13.0754 0.507274C13.6865 0.174232 14.1867 0.0054187 14.5631 0.0054187C15.874 0.0054187 16.901 1.08374 16.901 2.46092C16.901 3.02655 16.7076 3.58176 16.3562 4.02401C16.0057 4.46584 15.5209 4.76804 14.992 4.87433Z" fill="#888888" />
<path d="M18.052 9.19336H1.53418V10.027H18.052V9.19336Z" fill="#888888" />
<path d="M18.8108 10.0269H0.771122C0.345963 10.0269 0 9.68094 0 9.25578V4.81995C0 4.39479 0.345963 4.04883 0.771122 4.04883H18.8108C19.236 4.04883 19.5819 4.39479 19.5819 4.81995V9.25578C19.5819 9.68094 19.2364 10.0269 18.8108 10.0269ZM0.833646 9.19326H18.7483V4.88247H0.833646V9.19326Z" fill="#888888" />
</symbol><symbol viewBox="0 0 50 50" fill="none" id="home">
<path d="M32.8826 22.6585V34.2089C32.8826 34.4195 32.7183 34.5799 32.513 34.5799H27.1857C26.9804 34.5799 26.8162 34.4095 26.8162 34.2089V28.0126C26.8162 27.8021 26.652 27.6417 26.4467 27.6417H23.5521C23.3468 27.6417 23.1826 27.8121 23.1826 28.0126V34.2089C23.1826 34.4195 23.0183 34.5799 22.813 34.5799H17.4857C17.2804 34.5799 17.1162 34.4095 17.1162 34.2089V22.5984" stroke-width="0.85" stroke-miterlimit="10" />
<path d="M34.6998 24.2728L24.969 15.58L15.2998 24.2227" stroke-width="0.85" stroke-miterlimit="10" />
<circle cx="25" cy="25" r="24.5" />
</symbol><symbol viewBox="0 0 50 50" fill="none" id="ibook">
<path d="M25 17.9185V32.7764" stroke-width="0.85" stroke-miterlimit="10" />
<path d="M14.4131 20.1418V34.9998C14.4131 32.3945 16.9375 30.2691 20.0379 30.2691C22.188 30.2691 24.0501 31.2877 25.0003 32.7765C25.9506 31.2877 27.8223 30.2691 29.9628 30.2691C33.0632 30.2691 35.5876 32.3945 35.5876 34.9998V20.1418C35.5876 17.5365 33.0632 15.4111 29.9628 15.4111C27.8127 15.4111 25.9506 16.4297 25.0003 17.9185C24.0501 16.4297 22.1784 15.4111 20.0379 15.4111C16.9375 15.4209 14.4131 17.5365 14.4131 20.1418Z" stroke-width="0.85" stroke-miterlimit="10" />
<circle cx="25" cy="25" r="24.5" />
</symbol><symbol viewBox="0 0 49 50" fill="none" id="instagram">
<path d="M24.0045 20.0493C21.2803 20.0493 19.0645 22.2622 19.0645 24.9829C19.0645 27.7036 21.2803 29.9165 24.0045 29.9165C26.7287 29.9165 28.9445 27.7036 28.9445 24.9829C28.9445 22.2622 26.7287 20.0493 24.0045 20.0493Z" stroke-width="0.9" stroke-miterlimit="10" />
<path d="M29.9228 17.731C29.5966 17.731 29.2705 17.8651 29.0403 18.095C28.8101 18.3249 28.6758 18.6506 28.6758 18.9763C28.6758 19.302 28.8101 19.6278 29.0403 19.8577C29.2705 20.0876 29.5966 20.2217 29.9228 20.2217C30.2489 20.2217 30.5751 20.0876 30.8053 19.8577C31.0355 19.6278 31.1698 19.302 31.1698 18.9763C31.1698 18.6506 31.0355 18.3249 30.8053 18.095C30.5751 17.8651 30.2489 17.731 29.9228 17.731Z" stroke-width="0.9" stroke-miterlimit="10" />
<path d="M33.5968 30.2038C33.5968 32.6083 31.6399 34.5626 29.2323 34.5626H18.7766C16.3689 34.5626 14.4121 32.6083 14.4121 30.2038V19.7714C14.4121 17.3669 16.3689 15.4126 18.7766 15.4126H29.2227C31.6303 15.4126 33.5872 17.3669 33.5872 19.7714L33.5968 30.2038Z" stroke-width="0.9" stroke-miterlimit="10" />
<path d="M24.1228 0.499999C37.1526 0.499998 47.7456 11.452 47.7456 25C47.7456 38.548 37.1526 49.5 24.1228 49.5C11.093 49.5 0.499999 38.548 0.499999 25C0.499998 11.452 11.093 0.5 24.1228 0.499999Z" />
</symbol><symbol viewBox="0 0 23 23" fill="none" id="instagram.small">
<path d="M11.5 6.16943C8.51803 6.16943 6.09253 8.59176 6.09253 11.5699C6.09253 14.548 8.51803 16.9703 11.5 16.9703C14.482 16.9703 16.9075 14.548 16.9075 11.5699C16.9075 8.59176 14.482 6.16943 11.5 6.16943Z" stroke-width="0.9" stroke-miterlimit="10" />
<path d="M17.9783 3.63135C17.6213 3.63135 17.2643 3.77816 17.0123 4.02983C16.7603 4.2815 16.6133 4.63803 16.6133 4.99456C16.6133 5.3511 16.7603 5.70763 17.0123 5.9593C17.2643 6.21097 17.6213 6.35778 17.9783 6.35778C18.3353 6.35778 18.6923 6.21097 18.9443 5.9593C19.1963 5.70763 19.3433 5.3511 19.3433 4.99456C19.3433 4.63803 19.1963 4.2815 18.9443 4.02983C18.6923 3.77816 18.3353 3.63135 17.9783 3.63135Z" stroke-width="0.9" stroke-miterlimit="10" />
<path d="M22 17.2846C22 19.9166 19.858 22.0558 17.2225 22.0558H5.7775C3.142 22.0558 1 19.9166 1 17.2846V5.86501C1 3.23295 3.142 1.09375 5.7775 1.09375H17.212C19.8475 1.09375 21.9895 3.23295 21.9895 5.86501L22 17.2846Z" stroke-width="0.9" stroke-miterlimit="10" />
</symbol><symbol viewBox="0 0 23 20" id="like">
<path d="M21.0142 1.97205C19.9669 0.936191 18.5245 0.428223 16.677 0.428223C16.1632 0.428223 15.6396 0.517864 15.116 0.697147C14.5824 0.87643 14.0885 1.11547 13.634 1.42424C13.1795 1.72304 12.7843 2.01189 12.4484 2.28081C12.1224 2.54974 11.8062 2.82862 11.5099 3.12743C11.2135 2.82862 10.8973 2.54974 10.5713 2.28081C10.2453 2.01189 9.85006 1.733 9.38571 1.42424C8.93125 1.12543 8.43726 0.87643 7.90376 0.697147C7.36037 0.507904 6.84663 0.428223 6.33288 0.428223C4.48537 0.428223 3.04293 0.946151 1.99568 1.97205C0.93855 2.99794 0.424805 4.43221 0.424805 6.25492C0.424805 6.81269 0.523602 7.39037 0.711317 7.97802C0.908911 8.56567 1.12627 9.07364 1.37326 9.48201C1.62025 9.90033 1.89688 10.2987 2.21303 10.6971C2.52919 11.0956 2.75642 11.3645 2.89474 11.5139C3.04293 11.6633 3.15161 11.7728 3.23065 11.8426L10.9467 19.3525C11.0949 19.5019 11.2727 19.5816 11.4901 19.5816C11.7074 19.5816 11.8853 19.5019 12.0335 19.3525L19.7397 11.8724C21.6267 9.97006 22.5751 8.09755 22.5751 6.26488C22.585 4.43221 22.0614 2.99794 21.0142 1.97205Z" stroke-width="0.85" stroke-miterlimit="10" />
</symbol><symbol viewBox="0 0 50 50" fill="none" id="listen">
<circle cx="25" cy="25" r="24.5" />
<path d="M18.5747 33.5632C17.8324 33.375 17.2783 32.6954 17.2783 31.9009V28.6599C17.2783 27.8549 17.8324 27.1857 18.5747 26.9976" stroke-width="0.9" stroke-miterlimit="10" />
<path d="M20.1424 25.4293C19.2851 25.4293 18.5742 26.1298 18.5742 26.9975V33.5318C18.5742 34.3891 19.2747 35.1 20.1424 35.1C20.9997 35.1 21.7107 34.3995 21.7107 33.5318V26.9975C21.7002 26.1298 20.9997 25.4293 20.1424 25.4293Z" stroke-width="0.9" stroke-miterlimit="10" />
<path d="M32.2598 26.9871C33.0021 27.1753 33.5562 27.8549 33.5562 28.6494V31.9009C33.5562 32.7059 33.0021 33.375 32.2598 33.5632" stroke-width="0.9" stroke-miterlimit="10" />
<path d="M17.2466 30.2803C16.3998 30.2803 15.7202 29.5903 15.7202 28.7539V27.1857C15.5634 26.4852 15.4902 25.7639 15.4902 25.032C15.4902 19.5537 19.944 15.1 25.4223 15.1" stroke-width="0.9" stroke-miterlimit="10" />
<path d="M25.4219 15.1C30.9002 15.1 35.3539 19.5537 35.3539 25.032C35.3539 25.7534 35.2703 26.4852 35.1239 27.1857V28.7539C35.1239 29.6008 34.4339 30.2803 33.5975 30.2803" stroke-width="0.9" stroke-miterlimit="10" />
<path d="M29.1338 26.9975V33.5318C29.1338 34.3995 29.8343 35.1 30.702 35.1C31.5698 35.1 32.2702 34.3995 32.2702 33.5318V26.9975C32.2702 26.1298 31.5698 25.4293 30.702 25.4293C29.8343 25.4293 29.1338 26.1298 29.1338 26.9975Z" stroke-width="0.9" stroke-miterlimit="10" />
</symbol><symbol viewBox="0 0 40 40" fill="none" id="male">
<path d="M16.7871 13.1323C16.7871 14.9147 18.2271 16.3547 19.9971 16.3547C21.7671 16.3547 23.1971 14.9046 23.1971 13.1323C23.1971 11.35 21.7571 9.8999 19.9971 9.8999C18.2271 9.8999 16.7871 11.35 16.7871 13.1323Z" stroke-width="0.85" stroke-miterlimit="10" />
<path d="M19.5567 29.793L14.2667 20.5287C14.0767 20.1964 14.3167 19.7735 14.6967 19.7735H19.9867H25.2767C25.6567 19.7735 25.9067 20.1964 25.7067 20.5287L20.4167 29.793C20.2367 30.1354 19.7567 30.1354 19.5567 29.793Z" stroke-width="0.85" stroke-miterlimit="10" />
<rect x="0.5" y="0.5" width="39" height="39" rx="19.5" />
</symbol><symbol viewBox="0 0 26 16" fill="none" id="mastercard">
<path d="M17.8953 0C16.1185 0 14.4041 0.573434 13 1.62506C11.5959 0.572932 9.88152 0 8.10469 0C3.63594 0 0 3.58897 0 8C0 12.411 3.63594 16 8.10469 16C9.88152 16 11.5959 15.4266 13 14.3749C14.4041 15.4266 16.1185 16 17.8953 16C22.3641 16 26 12.411 26 8C26 3.58897 22.3641 0 17.8953 0ZM13 3.66015C13.2509 3.93634 13.4784 4.23358 13.6784 4.54737H12.3221C12.5216 4.23358 12.7491 3.93634 13 3.66015ZM11.6157 6.05113H14.3838C14.5082 6.4411 14.5945 6.8411 14.6418 7.24812H11.3572C11.4055 6.8411 11.4913 6.4411 11.6157 6.05113ZM11.3577 8.75188H14.6423C14.595 9.1589 14.5087 9.5589 14.3843 9.94937H11.6162C11.4913 9.5589 11.4055 9.1589 11.3577 8.75188ZM13 12.3398C12.7491 12.0637 12.5216 11.7664 12.3216 11.4526H13.6779C13.4784 11.7664 13.2509 12.0637 13 12.3398ZM17.8953 14.4962C16.5445 14.4962 15.2384 14.0887 14.1416 13.3363C14.7697 12.6426 15.2765 11.8416 15.6269 10.9815C16.0134 10.0326 16.2094 9.02957 16.2094 8C16.2094 6.97043 16.0134 5.96742 15.6269 5.01855C15.2765 4.1584 14.7702 3.35739 14.1416 2.66366C15.2384 1.91128 16.5445 1.50376 17.8953 1.50376C21.5241 1.50376 24.4766 4.41805 24.4766 8C24.4766 11.582 21.5241 14.4962 17.8953 14.4962Z" fill="#888888" />
</symbol><symbol viewBox="0 0 55 55" fill="none" id="menu-close">
<line x1="17.3536" y1="16.6464" x2="38.3536" y2="37.6464" />
<line y1="-0.5" x2="29.6985" y2="-0.5" transform="matrix(-0.707107 0.707107 0.707107 0.707107 38 17)" />
<circle cx="27.5" cy="27.5" r="27" />
</symbol><symbol viewBox="0 0 55 55" fill="none" id="menu-open">
<circle cx="27.5" cy="27.5" r="27" />
<line x1="17.1111" y1="17.2222" x2="39.1111" y2="17.2222" />
<line x1="17.1111" y1="38" x2="39.1111" y2="38" />
<line x1="17.1111" y1="27" x2="28.1111" y2="27" />
</symbol><symbol viewBox="0 0 11 1" fill="none" id="minus">
<line y1="0.5" x2="11" y2="0.5" />
</symbol><symbol viewBox="0 0 36 40" fill="none" id="no">
<g clip-path="url(#no_clip0)">
<path d="M25.341 39.9993L24.5023 39.1453C24.1611 38.7986 23.6862 38.5991 23.1997 38.5991H16.0535C14.3482 38.5991 12.7223 37.9591 11.4756 36.7963L6.88152 32.5128C6.09252 31.777 6.03023 30.5646 6.73979 29.7513C7.41144 28.9821 8.5471 28.8449 9.38214 29.4326L14.1044 32.7574C14.7996 33.2467 15.6165 33.5058 16.466 33.5058H21.7345C22.1434 33.5058 22.4756 33.1736 22.4756 32.7646C22.4756 32.3557 22.1434 32.0235 21.7345 32.0235H18.7554C17.6884 32.0235 16.8208 31.1559 16.8208 30.0889C16.8208 29.0218 17.6884 28.1543 18.7554 28.1543H26.9858C28.9077 28.1543 30.6826 29.2755 31.5068 31.0115L35.2351 38.9395L25.341 39.9993ZM8.23746 29.9724C7.93413 29.9724 7.63352 30.0997 7.41956 30.3453C7.03228 30.7894 7.06659 31.4511 7.4972 31.8529L12.0913 36.1364C13.171 37.143 14.5775 37.6973 16.0535 37.6973H23.1997C23.9273 37.6973 24.6359 37.9952 25.146 38.5134L25.6786 39.0559L33.8792 38.1784L30.6907 31.3997C30.0154 29.9788 28.5611 29.0589 26.9858 29.0589H18.7554C18.1867 29.0589 17.7236 29.522 17.7236 30.0907C17.7236 30.6594 18.1867 31.1225 18.7554 31.1225H21.7345C22.6409 31.1225 23.3784 31.8601 23.3784 32.7665C23.3784 33.6728 22.6409 34.4104 21.7345 34.4104H16.466C15.4288 34.4104 14.4321 34.0944 13.5845 33.4977L8.86216 30.1728C8.67258 30.0374 8.45412 29.9724 8.23746 29.9724Z" fill="#888888" />
<path d="M12.5645 20.192C12.3722 20.192 12.1772 20.164 11.9849 20.1044L6.87264 18.5228C6.16037 18.3026 5.50949 17.9026 4.99131 17.3655L4.19057 16.5359C3.85475 16.1874 3.34108 16.0628 2.88248 16.219L0 17.1976V8.38674H1.18802C1.38031 8.38674 1.56988 8.35695 1.75224 8.29737L6.00961 6.91435C6.71015 6.68686 7.46575 6.61644 8.19608 6.71033L15.2339 7.62933L15.1175 8.52486L8.07962 7.60586C7.482 7.52822 6.86271 7.5869 6.28856 7.77287L2.03119 9.15588C1.75856 9.24435 1.4751 9.28949 1.18802 9.28949H0.902751V15.9373L2.5936 15.3632C3.38171 15.096 4.26369 15.3099 4.84055 15.9085L5.64129 16.7381C6.05385 17.166 6.57203 17.4847 7.13986 17.6598L12.2521 19.2414C12.7613 19.3985 13.3183 19.1548 13.5476 18.6727C13.7877 18.1662 13.5954 17.5515 13.1098 17.2725L8.31795 14.52C7.7456 14.1914 7.47297 13.518 7.65623 12.8833C7.83227 12.2758 8.39649 11.8515 9.02932 11.8515H9.03022L11.6762 11.8677L11.6708 12.7705L9.02751 12.7552C8.79731 12.7552 8.58877 12.9113 8.52468 13.1352C8.45697 13.369 8.55718 13.6164 8.76842 13.7382L13.5602 16.4907C14.4521 17.0026 14.8051 18.1319 14.3637 19.0609C14.0288 19.7641 13.3138 20.192 12.5645 20.192Z" fill="#888888" />
<path d="M6.58196 17.7801L6.21191 18.2285L6.90821 18.8031L7.27825 18.3547L6.58196 17.7801Z" fill="#888888" />
<path d="M15.9527 26.8532L6.27246 18.8639L6.84751 18.1679L15.8317 25.5822L30.0139 8.39829L21.3782 1.27107L10.0017 15.0552L9.3057 14.4801L21.2563 0L31.285 8.27642L15.9527 26.8532Z" fill="#888888" />
<path d="M19.003 17.5084C17.935 17.5084 16.8463 17.1121 15.9787 16.3159C14.2039 14.6864 14.0189 11.9899 15.5662 10.3036C16.3191 9.48296 17.3636 9.02256 18.5064 9.00631C19.6439 8.99006 20.7353 9.41435 21.5911 10.2006C22.4469 10.9869 22.9633 12.0423 23.0446 13.1725C23.1258 14.3127 22.7566 15.3924 22.0037 16.213C21.2129 17.0751 20.1197 17.5084 19.003 17.5084ZM18.5687 9.90996C18.5525 9.90996 18.5362 9.90996 18.52 9.90996C17.6281 9.9226 16.8156 10.2792 16.2324 10.9147C15.0218 12.2336 15.1816 14.3587 16.5899 15.6515C17.9982 16.9442 20.1287 16.9225 21.3402 15.6027C21.9234 14.9672 22.2095 14.1276 22.1454 13.2375C22.0813 12.3375 21.6679 11.4961 20.9818 10.866C20.3083 10.2485 19.4525 9.90996 18.5687 9.90996Z" fill="#888888" />
</g>
<defs>

</defs>
</symbol><clipPath id="no_clip0">
<rect width="35.2362" height="40" fill="white" />
</clipPath><symbol viewBox="0 0 41 40" fill="none" id="novaPochta">
<path d="M9.4649 28.5554V11.4458C9.4649 11.3584 9.35803 11.3195 9.29973 11.3778L1.22589 19.4517C0.924702 19.7528 0.924702 20.2484 1.22589 20.5495L9.29973 28.6234C9.35803 28.6914 9.4649 28.6428 9.4649 28.5554Z" fill="white" stroke="white" stroke-width="0.3" stroke-miterlimit="10" />
<path d="M31.6943 28.565V11.4361C31.6943 11.3486 31.8012 11.3098 31.8595 11.3681L39.9431 19.4516C40.2443 19.7528 40.2443 20.2483 39.9431 20.5495L31.8595 28.6331C31.8012 28.6913 31.6943 28.6525 31.6943 28.565Z" fill="white" stroke="white" stroke-width="0.3" stroke-miterlimit="10" />
<path d="M23.3395 16.0803H17.7821C17.3546 16.0803 17.0048 15.7306 17.0048 15.3031V9.65818C17.0048 9.23069 16.655 8.88092 16.2275 8.88092H12.0303C11.9429 8.88092 11.904 8.77404 11.9623 8.71575L20.0361 0.641908C20.3373 0.340718 20.8328 0.340718 21.134 0.641908L29.2079 8.71575C29.2662 8.77404 29.2273 8.88092 29.1398 8.88092H24.894C24.4665 8.88092 24.1168 9.23069 24.1168 9.65818V15.3031C24.1168 15.7306 23.767 16.0803 23.3395 16.0803Z" fill="white" stroke="white" stroke-width="0.3" stroke-miterlimit="10" />
<path d="M23.3881 23.9209H17.8306C17.4031 23.9209 17.0534 24.2707 17.0534 24.6982V30.3431C17.0534 30.7705 16.7036 31.1203 16.2761 31.1203H12.0303C11.9429 31.1203 11.904 31.2272 11.9623 31.2855L20.0361 39.3593C20.3373 39.6605 20.8328 39.6605 21.134 39.3593L29.2079 31.2855C29.2662 31.2272 29.2273 31.1203 29.1398 31.1203H24.9426C24.5151 31.1203 24.1654 30.7705 24.1654 30.3431V24.6982C24.1654 24.261 23.8156 23.9209 23.3881 23.9209Z" fill="white" stroke="white" stroke-width="0.3" stroke-miterlimit="10" />
</symbol><symbol viewBox="0 0 50 50" fill="none" id="payment">
<path d="M34.7797 23.7569V19.1526C34.7797 18.625 34.3522 18.1934 33.8296 18.1934H14.4092" stroke-width="0.9" stroke-miterlimit="10" />
<path d="M34.7804 29.0234V33.6278C34.7804 34.1553 34.3529 34.587 33.8303 34.587H15.3505C14.8279 34.587 14.4004 34.1553 14.4004 33.6278V16.3616C14.4004 15.834 14.8279 15.4023 15.3505 15.4023H30.999C31.5215 15.4023 31.9491 15.834 31.9491 16.3616V18.1841" stroke-width="0.9" stroke-miterlimit="10" />
<path d="M35.8349 29.0238H30.7138C30.1912 29.0238 29.7637 28.5922 29.7637 28.0646V24.7073C29.7637 24.1797 30.1912 23.748 30.7138 23.748H36.652C37.1746 23.748 37.6022 24.1797 37.6022 24.7073V28.0646C37.6022 28.5922 37.1746 29.0238 36.652 29.0238H35.8349Z" stroke-width="0.9" stroke-miterlimit="10" />
<circle cx="25" cy="25" r="24.5" />
</symbol><symbol viewBox="0 0 26 21" fill="none" id="pc">
<path d="M9.6175 19.6404L9.99092 16.5956H2.25432C1.56492 16.5956 1 16.0306 1 15.3412V1.75432C1 1.06492 1.56492 0.5 2.25432 0.5H23.8364C24.5258 0.5 25.0907 1.06492 25.0907 1.75432V15.3508C25.0907 16.0402 24.5258 16.6051 23.8364 16.6051H16.0902L16.4636 19.65" stroke-width="0.85" stroke-miterlimit="10" />
<path d="M1 13.4932H25.0907" stroke-width="0.85" stroke-miterlimit="10" />
<path d="M9.99121 16.6045H16.0905" stroke-width="0.85" stroke-miterlimit="10" />
<path d="M17.9287 19.6401H7.92285" stroke-width="0.85" stroke-miterlimit="10" />
</symbol><symbol viewBox="0 0 50 50" fill="none" id="pdf">
<path d="M24.9587 21.1875C25.8993 17.1086 25.4989 16.4575 25.294 16.1798C24.9866 15.7777 24.6886 15.5 24.3347 15.5C24.1857 15.5 23.7759 15.567 23.6175 15.6245C23.2077 15.7585 22.9935 16.0841 22.8166 16.5054C22.3136 17.7022 23.0028 19.7417 23.7014 21.312C24.67 23.4855 26.7748 26.4251 28.1439 27.9858C29.2615 29.0869 30.2581 29.6423 31.1149 29.6423C31.7482 29.6423 32.2884 29.3454 32.6796 28.7805C33.0894 28.1964 33.1825 27.6698 32.959 27.2102C32.6889 26.6644 32.0183 26.4059 30.91 26.4059C30.2581 26.4059 29.4664 26.4921 28.5444 26.6644C27.2032 26.9517 23.4406 27.9858 21.0284 29.1061C18.3554 30.3604 16.9398 31.6051 16.8094 32.7829C16.7628 33.2137 16.8652 33.8457 17.5917 34.4106C17.7966 34.5638 18.0294 34.65 18.2716 34.65C18.8863 34.65 19.5103 34.1617 20.2367 33.118C20.7583 32.3616 21.3264 31.3179 21.9132 30.0348C23.4406 27.1528 23.9901 24.6537 24.9587 21.1875Z" stroke-width="0.9" stroke-miterlimit="10" />
<circle cx="25" cy="25" r="24.5" />
</symbol><symbol viewBox="0 0 12 21" fill="none" id="phone">
<path d="M9.63718 19.65H2.36282C1.60469 19.65 1 18.9986 1 18.2035V1.94655C1 1.14185 1.61372 0.5 2.36282 0.5H9.63718C10.3953 0.5 11 1.15143 11 1.94655V18.2035C11 18.9986 10.3863 19.65 9.63718 19.65ZM9.18592 17.6095H2.81408V2.5405H9.18592V17.6095Z" stroke-width="0.85" stroke-miterlimit="10" />
</symbol><symbol viewBox="0 0 50 50" fill="none" id="planet">
<path d="M25.0044 34.5972C30.3021 34.5972 34.5968 30.3026 34.5968 25.0049C34.5968 19.7072 30.3021 15.4126 25.0044 15.4126C19.7067 15.4126 15.4121 19.7072 15.4121 25.0049C15.4121 30.3026 19.7067 34.5972 25.0044 34.5972Z" stroke-width="0.9" stroke-miterlimit="10" />
<path d="M25.0049 15.4126V34.5877" stroke-width="0.9" stroke-miterlimit="10" />
<path d="M33.427 20.4102H16.5732" stroke-width="0.9" stroke-miterlimit="10" />
<path d="M15.4121 25.0049H34.5872" stroke-width="0.9" stroke-miterlimit="10" />
<path d="M16.5732 29.5996H33.427" stroke-width="0.9" stroke-miterlimit="10" />
<path d="M23.4887 15.5278C20.5247 18.9139 19.5558 22.1657 19.5846 25.0051" stroke-width="0.9" stroke-miterlimit="10" />
<path d="M23.4887 34.4723C20.5247 31.0862 19.5558 27.8344 19.5846 24.9951" stroke-width="0.9" stroke-miterlimit="10" />
<path d="M26.5107 15.5278C29.4748 18.9139 30.4436 22.1657 30.4148 25.0051" stroke-width="0.9" stroke-miterlimit="10" />
<path d="M26.5107 34.4723C29.4748 31.0862 30.4436 27.8344 30.4148 24.9951" stroke-width="0.9" stroke-miterlimit="10" />
<circle cx="25" cy="25" r="24.5" />
</symbol><symbol viewBox="0 0 11 11" fill="none" id="plus">
<line x1="5.5" y1="-2.18557e-08" x2="5.5" y2="11" />
<line y1="5.5" x2="11" y2="5.5" />
</symbol><symbol viewBox="0 0 50 50" fill="none" id="read">
<circle cx="25" cy="25" r="24.5" />
<path d="M25.0398 34.58C24.7798 34.58 24.5398 34.4587 24.3798 34.2564C24.2898 34.1351 24.1898 34.0239 24.0898 33.9127C23.4598 33.2352 22.3098 32.4163 20.4198 32.4163C18.7198 32.4163 17.0398 32.9926 15.5598 33.4981C14.0698 34.0037 12.6898 34.4789 11.5998 34.2666C11.4198 34.2261 11.2998 34.0542 11.2998 33.8722V18.1397C11.2998 17.9173 11.3898 17.7151 11.5398 17.5634C11.6998 17.4117 11.9198 17.3207 12.1398 17.3308C12.9798 17.3409 14.0898 16.9567 15.2698 16.5624C16.8198 16.0265 18.5698 15.43 20.4298 15.43C22.6498 15.43 24.0198 16.4006 24.7698 17.2196C24.8698 17.3207 24.9598 17.4319 25.0398 17.5432C25.1298 17.4319 25.2198 17.3207 25.3098 17.2196C26.0598 16.4006 27.4298 15.43 29.6498 15.43C31.5098 15.43 33.2598 16.0265 34.8098 16.5624C35.9898 16.9668 37.1098 17.3511 37.9298 17.3308C38.1498 17.3308 38.3698 17.4117 38.5298 17.5634C38.6898 17.7151 38.7698 17.9173 38.7698 18.1397V33.8722C38.7698 34.0542 38.6498 34.2362 38.4698 34.2666C37.3798 34.4789 35.9998 34.0037 34.5098 33.4981C33.0298 32.9926 31.3498 32.4163 29.6498 32.4163C27.7598 32.4163 26.6098 33.2352 25.9798 33.9127C25.8798 34.0239 25.7798 34.1351 25.6898 34.2564C25.5398 34.4587 25.2998 34.58 25.0398 34.58Z" stroke-width="0.9" stroke-miterlimit="10" />
<path d="M25.04 17.533V34.58" stroke-width="0.9" stroke-miterlimit="10" />
</symbol><symbol viewBox="0 0 50 50" fill="none" id="recommended">
<path d="M21 34.57H23.3713H29.5288V33.8825H28.8812C27.9247 33.8825 27.1575 33.1053 27.1575 32.1588V23.0122H23.3713H21V23.6997H21.6476C22.6041 23.6997 23.3713 24.4769 23.3713 25.4234V32.1488C23.3713 33.1053 22.5942 33.8725 21.6476 33.8725H21V34.57Z" stroke-width="0.85" stroke-miterlimit="10" />
<path d="M21.4909 20.601C22.9216 20.601 24.0815 19.4412 24.0815 18.0105C24.0815 16.5797 22.9216 15.4199 21.4909 15.4199C20.0602 15.4199 18.9004 16.5797 18.9004 18.0105C18.9004 19.4412 20.0602 20.601 21.4909 20.601Z" stroke-width="0.85" stroke-miterlimit="10" />
<path d="M28.5407 20.601C29.9714 20.601 31.1313 19.4412 31.1313 18.0105C31.1313 16.5797 29.9714 15.4199 28.5407 15.4199C27.11 15.4199 25.9502 16.5797 25.9502 18.0105C25.9502 19.4412 27.11 20.601 28.5407 20.601Z" stroke-width="0.85" stroke-miterlimit="10" />
<circle cx="25" cy="25" r="24.5" />
</symbol><symbol viewBox="0 0 50 50" fill="none" id="review">
<circle cx="25" cy="25" r="24.5" />
<path d="M34.6398 16.9737C33.5798 15.9381 32.1198 15.4302 30.2498 15.4302C29.7298 15.4302 29.1998 15.5198 28.6698 15.6991C28.1298 15.8783 27.6298 16.1173 27.1698 16.426C26.7098 16.7248 26.3098 17.0136 25.9698 17.2824C25.6398 17.5513 25.3198 17.8301 25.0198 18.1289C24.7198 17.8301 24.3998 17.5513 24.0698 17.2824C23.7398 17.0136 23.3398 16.7347 22.8698 16.426C22.4098 16.1273 21.9098 15.8783 21.3698 15.6991C20.8198 15.5098 20.2998 15.4302 19.7798 15.4302C17.9098 15.4302 16.4498 15.948 15.3898 16.9737C14.3198 17.9994 13.7998 19.4335 13.7998 21.2558C13.7998 21.8135 13.8998 22.3911 14.0898 22.9786C14.2898 23.5662 14.5098 24.0741 14.7598 24.4824C15.0098 24.9006 15.2898 25.2989 15.6098 25.6973C15.9298 26.0956 16.1598 26.3645 16.2998 26.5139C16.4498 26.6632 16.5598 26.7728 16.6398 26.8425L24.4498 34.3511C24.5998 34.5005 24.7798 34.5802 24.9998 34.5802C25.2198 34.5802 25.3998 34.5005 25.5498 34.3511L33.3498 26.8724C35.2598 24.9703 36.2198 23.0981 36.2198 21.2658C36.2298 19.4335 35.6998 17.9994 34.6398 16.9737Z" stroke-width="0.9" stroke-miterlimit="10" />
</symbol><symbol viewBox="0 0 50 50" fill="none" id="scaleIn">
<path d="M27.6314 27.0063L26.9854 27.6523L34.2098 34.8768L34.8558 34.2307L27.6314 27.0063Z" fill="#888888" />
<path d="M15.7622 15.1411L15.1162 15.7871L22.2041 22.875L22.8501 22.2289L15.7622 15.1411Z" fill="#888888" />
<path d="M22.2713 27.0714L15.1162 34.2285L15.7623 34.8745L22.9175 27.7173L22.2713 27.0714Z" fill="#888888" />
<path d="M34.2109 15.1417L27.0537 22.2969L27.6996 22.943L34.8568 15.7879L34.2109 15.1417Z" fill="#888888" />
<path d="M15.9402 19.8959H15.0264V15H19.9232V15.9134H15.9402V19.8959Z" fill="#888888" />
<path d="M35.0004 19.8959H34.0865V15.9134H30.1035V15H35.0004V19.8959Z" fill="#888888" />
<path d="M19.8982 35.0001H15V30.1055H15.9138V34.0867H19.8982V35.0001Z" fill="#888888" />
<path d="M34.974 35.0001H30.0771V34.0867H34.0602V30.1055H34.974V35.0001Z" fill="#888888" />
<circle cx="25" cy="25" r="24.5" />
</symbol><symbol viewBox="0 0 50 50" fill="none" id="scaleOut">
<path d="M27.6726 27.0274L27.0183 27.6818L34.3356 34.9991L34.9899 34.3447L27.6726 27.0274Z" fill="#888888" />
<path d="M15.6543 15L15 15.6543L22.179 22.8333L22.8333 22.179L15.6543 15Z" fill="#888888" />
<path d="M22.2479 27.0963L15.0008 34.3454L15.6552 34.9997L22.9023 27.7505L22.2479 27.0963Z" fill="#888888" />
<path d="M34.3458 15.001L27.0967 22.2481L27.7509 22.9025L35 15.6554L34.3458 15.001Z" fill="#888888" />
<path d="M22.9247 22.9767H17.9647V22.0513H21.9993V18.018H22.9247V22.9767Z" fill="#888888" />
<path d="M31.9128 23.0467H26.9528V18.0867H27.8781V22.1213H31.9128V23.0467Z" fill="#888888" />
<path d="M23.0199 31.9291H22.0946V27.8944H18.0599V26.969H23.0199V31.9291Z" fill="#888888" />
<path d="M27.8266 31.859H26.9012V26.9003H31.8612V27.8257H27.8266V31.859Z" fill="#888888" />
<circle cx="25" cy="25" r="24.5" stroke="#888888" />
</symbol><symbol viewBox="0 0 50 50" fill="none" id="settings">
<circle cx="25" cy="25" r="24.5" />
<path d="M33.5956 22.9957L32.25 22.7646C32.1094 22.3125 31.9286 21.8805 31.7077 21.4585L32.501 20.3533C32.8324 19.8811 32.7822 19.2381 32.3705 18.8261L31.1755 17.6305C30.9545 17.4095 30.6533 17.2789 30.342 17.2789C30.0909 17.2789 29.86 17.3592 29.6591 17.4999L28.5445 18.2936C28.1127 18.0625 27.6608 17.8817 27.1888 17.741L26.9679 16.4148C26.8675 15.8421 26.3754 15.4302 25.803 15.4302H24.116C23.5335 15.4302 23.0415 15.8421 22.9511 16.4148L22.7201 17.7712C22.2683 17.9118 21.8365 18.1027 21.4247 18.3238L20.3201 17.53C20.1193 17.3894 19.8783 17.309 19.6373 17.309C19.3159 17.309 19.0147 17.4296 18.7937 17.6607L17.5987 18.8462C17.1971 19.2582 17.1368 19.9012 17.4682 20.3734L18.2716 21.4987C18.0506 21.9207 17.8799 22.3527 17.7393 22.8048L16.4138 23.0359C15.8414 23.1364 15.4297 23.6287 15.4297 24.2014V25.8893C15.4297 26.4721 15.8414 26.9644 16.4138 27.0548L17.7695 27.2859C17.91 27.738 18.0908 28.17 18.3218 28.582L17.5385 29.6771C17.2071 30.1494 17.2573 30.7924 17.669 31.2043L18.864 32.3999C19.085 32.621 19.3862 32.7516 19.6975 32.7516C19.9486 32.7516 20.1795 32.6712 20.3804 32.5305L21.5051 31.7268C21.9067 31.9378 22.3285 32.1086 22.7704 32.2492L22.9913 33.5955C23.0917 34.1682 23.5838 34.5802 24.1561 34.5802H25.8432C26.4256 34.5802 26.9177 34.1682 27.0081 33.5955L27.239 32.2492C27.6909 32.1086 28.1227 31.9277 28.5445 31.7067L29.6491 32.5004C29.8499 32.6411 30.0909 32.7214 30.342 32.7214C30.6533 32.7214 30.9545 32.6009 31.1755 32.3698L32.3705 31.1742C32.7822 30.7622 32.8324 30.1192 32.501 29.647L31.7077 28.5317C31.9286 28.1098 32.1094 27.6777 32.25 27.2256L33.5956 27.0046C34.168 26.9041 34.5797 26.4118 34.5797 25.8391V24.1612C34.5797 23.5785 34.168 23.0862 33.5956 22.9957Z" stroke-width="0.9" stroke-miterlimit="10" />
<path d="M24.9993 29.1348C27.2787 29.1348 29.1266 27.286 29.1266 25.0054C29.1266 22.7248 27.2787 20.876 24.9993 20.876C22.7199 20.876 20.8721 22.7248 20.8721 25.0054C20.8721 27.286 22.7199 29.1348 24.9993 29.1348Z" stroke-width="0.9" stroke-miterlimit="10" />
</symbol><symbol viewBox="0 0 50 50" fill="none" id="shop">
<circle cx="25" cy="25" r="24.5" />
<path d="M20.3818 33.1724C20.3818 33.9446 21.0053 34.58 21.7342 34.58C22.4631 34.58 23.0865 33.9446 23.0865 33.1724C23.0865 32.4001 22.4919 31.7648 21.7342 31.7648C21.0053 31.755 20.3818 32.3904 20.3818 33.1724Z" stroke-width="0.9" stroke-miterlimit="10" />
<path d="M28.9658 33.1723C28.9658 33.9445 29.5605 34.5799 30.3182 34.5799C31.0471 34.5799 31.6705 33.9445 31.6705 33.1723C31.6705 32.4 31.0759 31.7646 30.3182 31.7646C29.5892 31.7646 28.9658 32.4 28.9658 33.1723Z" stroke-width="0.9" stroke-miterlimit="10" />
<path d="M19.9503 30.3178H30.7499C31.8624 30.3178 32.7352 29.4087 32.7352 28.265C32.7352 27.2288 32.0159 26.4175 31.0472 26.2709L33.9245 17.8056H18.339L17.7251 15.4204H15.5" stroke-width="0.9" stroke-miterlimit="10" />
<path d="M31.0567 26.2807H20.3818L18.3389 17.8252" stroke-width="0.9" stroke-miterlimit="10" />
</symbol><symbol viewBox="0 0 17 22" fill="none" id="tablet">
<path d="M14.2044 20.5872H1.94465C1.14317 20.5872 0.5 19.9541 0.5 19.1867V2.81259C0.5 2.03561 1.15306 1.41211 1.94465 1.41211H14.2044C15.0059 1.41211 15.649 2.0452 15.649 2.81259V19.1867C15.6589 19.9637 15.0059 20.5872 14.2044 20.5872Z" stroke-width="0.85" stroke-miterlimit="10" />
<path d="M14.1057 3.06201H2.05371V18.9373H14.1057V3.06201Z" stroke-width="0.85" stroke-miterlimit="10" />
</symbol><symbol viewBox="0 0 50 50" fill="none" id="team">
<circle cx="25" cy="25" r="24.5" />
<path d="M20.8198 23.9599C23.1781 23.9599 25.0898 22.0482 25.0898 19.6899C25.0898 17.3317 23.1781 15.4199 20.8198 15.4199C18.4615 15.4199 16.5498 17.3317 16.5498 19.6899C16.5498 22.0482 18.4615 23.9599 20.8198 23.9599Z" stroke-width="0.9" stroke-miterlimit="10" />
<path d="M13 34.9999C13 30.6799 16.5 27.1699 20.83 27.1699C25.16 27.1699 28.66 30.6699 28.66 34.9999" stroke-width="0.9" stroke-miterlimit="10" />
<path d="M30.8202 25.2302C32.7034 25.2302 34.2302 23.7034 34.2302 21.8202C34.2302 19.9369 32.7034 18.4102 30.8202 18.4102C28.9369 18.4102 27.4102 19.9369 27.4102 21.8202C27.4102 23.7034 28.9369 25.2302 30.8202 25.2302Z" stroke-width="0.9" stroke-miterlimit="10" />
<path d="M26.46 29.6201C27.58 28.5501 29.11 27.8901 30.78 27.8901C34.24 27.8901 37.04 30.6901 37.04 34.1501" stroke-width="0.9" stroke-miterlimit="10" />
</symbol><symbol viewBox="0 0 28 40" fill="none" id="ukrPochta">
<path d="M14.5599 0.42406C6.74992 0.42406 0.419922 6.679 0.419922 14.3964C0.419922 15.6612 0.419922 19.3272 2.54992 22.3411L14.5899 39.3766C14.7899 39.6533 15.2099 39.6533 15.4099 39.3766L26.9999 22.9735L13.3299 20.0881C9.68992 19.2482 7.08992 15.7205 7.78992 11.7383C8.29992 8.84303 10.6199 6.49125 13.5399 5.92801C18.2299 5.0288 22.3399 8.55647 22.3399 13.0328C22.3399 15.7501 20.8199 18.1217 18.5699 19.3667L25.3299 20.681C26.7499 18.6059 27.5799 16.1059 27.5799 13.4082C27.5799 6.22445 21.6899 0.404297 14.4199 0.404297" fill="white" />
<path d="M14.5599 0.42406C6.74992 0.42406 0.419922 6.679 0.419922 14.3964C0.419922 15.6612 0.419922 19.3272 2.54992 22.3411L14.5899 39.3766C14.7899 39.6533 15.2099 39.6533 15.4099 39.3766L26.9999 22.9735L13.3299 20.0881C9.68992 19.2482 7.08992 15.7205 7.78992 11.7383C8.29992 8.84303 10.6199 6.49125 13.5399 5.92801C18.2299 5.0288 22.3399 8.55647 22.3399 13.0328C22.3399 15.7501 20.8199 18.1217 18.5699 19.3667L25.3299 20.681C26.7499 18.6059 27.5799 16.1059 27.5799 13.4082C27.5799 6.22445 21.6899 0.404297 14.4199 0.404297" stroke="white" stroke-width="0.3" stroke-miterlimit="10" />
</symbol><symbol viewBox="0 0 50 50" fill="none" id="video">
<circle cx="25" cy="25" r="24.5" />
<path d="M19.6928 15.5689L35.3292 24.5917C35.6441 24.7806 35.6441 25.2215 35.3292 25.4105L19.7086 34.4333C19.3937 34.6222 19 34.386 19 34.0239V15.9783C19 15.6004 19.3779 15.3799 19.6928 15.5689Z" stroke-width="0.9" stroke-miterlimit="10" />
</symbol><symbol viewBox="0 0 52 16" fill="none" id="visa">
<path d="M20.8016 0.259766L18.1621 15.7601H22.3875L25.027 0.259766H20.8016Z" fill="#888888" />
<path d="M14.6201 0.283203L10.4816 10.8521L10.0471 9.25537C9.23244 7.33276 6.90793 4.57377 4.19238 2.83582L7.97242 15.7618L12.4368 15.751L19.0844 0.283203H14.6201Z" fill="#888888" />
<path d="M8.43992 1.39087C8.20095 0.445863 7.48405 0.163446 6.60421 0.130859H0.0543109L0 0.445863C5.09437 1.68415 8.47251 4.66039 9.86287 8.24491L8.43992 1.39087Z" fill="#888888" />
<path d="M33.5857 3.23693C34.9652 3.21521 35.9645 3.51935 36.7466 3.83435L37.1267 4.01901L37.7024 0.662593C36.866 0.336728 35.5517 0 33.9224 0C29.7513 0 26.8076 2.0964 26.7859 5.11609C26.7642 7.34284 28.8823 8.58113 30.4899 9.33062C32.1301 10.091 32.6841 10.5798 32.6841 11.2532C32.6732 12.2851 31.3698 12.7631 30.1532 12.7631C28.4587 12.7631 27.568 12.5241 26.1776 11.9484L25.6345 11.6986L25.0371 15.1636C26.0256 15.5981 27.8504 15.9674 29.7404 15.9891C34.1831 15.9891 37.0616 13.9145 37.0941 10.6884C37.1159 8.92872 35.9862 7.58181 33.5422 6.48472C32.0649 5.76782 31.1634 5.28988 31.1742 4.56212C31.1634 3.92125 31.9346 3.23693 33.5857 3.23693Z" fill="#888888" />
<path d="M48.5428 0.283203H45.2841C44.274 0.283203 43.5136 0.554758 43.0683 1.56494L36.8008 15.7618H41.2326C41.2326 15.7618 41.9603 13.8501 42.1233 13.4373C42.6121 13.4373 46.9135 13.4482 47.5326 13.4482C47.663 13.9913 48.0431 15.7727 48.0431 15.7727H51.9644L48.5428 0.283203ZM43.329 10.2764C43.6765 9.38571 45.0126 5.9424 45.0126 5.9424C44.9909 5.98585 45.3602 5.04084 45.5774 4.46515L45.8598 5.80119C45.8598 5.80119 46.6636 9.5052 46.8374 10.2764H43.329Z" fill="#888888" />
</symbol></defs></svg>