<svg xmlns="http://www.w3.org/2000/svg" xmlns:xlink="http://www.w3.org/1999/xlink"><defs><symbol viewBox="0 0 50 50" fill="none" id="about">
<path d="M29.6719 35.0001H20V33.4053H21.1089C21.8473 33.4053 22.4483 32.8043 22.4483 32.0659V25.1357C22.4483 24.3973 21.8473 23.7964 21.1089 23.7964H20V22.2015H27.2241V32.0659C27.2241 32.8043 27.825 33.4053 28.5634 33.4053H29.6723V35.0001H29.6719ZM21.9553 34.119H27.7166C26.9108 33.7855 26.3425 32.9911 26.3425 32.0664V23.0831H21.9553C22.7611 23.4166 23.3294 24.211 23.3294 25.1357V32.0664C23.3294 32.9911 22.7611 33.7859 21.9553 34.119Z" fill="white" stroke="none" />
<path d="M24.4642 20.2156C22.7504 20.2156 21.3564 18.8216 21.3564 17.1078C21.3564 15.394 22.7504 14 24.4642 14C26.1781 14 27.572 15.394 27.572 17.1078C27.572 18.8212 26.1776 20.2156 24.4642 20.2156ZM24.4642 14.8811C23.2364 14.8811 22.2376 15.8799 22.2376 17.1078C22.2376 18.3357 23.2364 19.3345 24.4642 19.3345C25.6921 19.3345 26.6909 18.3357 26.6909 17.1078C26.6909 15.8799 25.6921 14.8811 24.4642 14.8811Z" fill="white" stroke="none" />
<circle cx="25" cy="25" r="24.5" />
</symbol><symbol viewBox="0 0 21 12" fill="none" id="arrow-down">
<path d="M20 1L10.5 10.5L1 1" />
</symbol><symbol viewBox="0 0 50 50" fill="none" id="author">
<path d="M25.0802 24.2015C22.5434 24.2015 20.4795 22.1375 20.4795 19.6007C20.4795 17.0639 22.5434 15 25.0802 15C27.617 15 29.681 17.0639 29.681 19.6007C29.681 22.1375 27.617 24.2015 25.0802 24.2015ZM25.0802 15.8598C23.0176 15.8598 21.3393 17.5381 21.3393 19.6007C21.3393 21.6634 23.0176 23.3417 25.0802 23.3417C27.1429 23.3417 28.8212 21.6634 28.8212 19.6007C28.8212 17.5381 27.1429 15.8598 25.0802 15.8598Z" fill="white" stroke="none" />
<path d="M33.1597 35H32.3C32.3 31.0188 29.0611 27.78 25.0799 27.78C21.0986 27.78 17.8598 31.0188 17.8598 35H17C17 30.545 20.6244 26.9202 25.0799 26.9202C29.5353 26.9202 33.1597 30.5446 33.1597 35Z" fill="white" stroke="none" />
<circle cx="25" cy="25" r="24.5" />
</symbol><symbol viewBox="0 0 50 50" fill="none" id="back">
<circle cx="25" cy="25" r="24.5" />
<path d="M30 15L20 25L30 35" />
</symbol><symbol viewBox="0 0 50 50" fill="none" id="blog">
<g clip-path="url(#blog_clip0)">
<path d="M26.5279 35H25.0873C20.6281 35 17 31.3724 17 26.9132V17.0346C17 15.9128 17.9128 15 19.0346 15C20.1564 15 21.0692 15.9128 21.0692 17.0346V26.9132C21.0692 29.1287 22.8717 30.9313 25.0873 30.9313H26.5279C28.7435 30.9313 30.546 29.1287 30.546 26.9132V26.8433C30.546 24.6278 28.7435 22.8252 26.5279 22.8252H24.9546C23.8328 22.8252 22.92 21.9125 22.92 20.7906C22.92 19.6688 23.8328 18.756 24.9546 18.756H26.5279C30.9872 18.756 34.6152 22.3841 34.6152 26.8433V26.9132C34.6152 31.3724 30.9872 35 26.5279 35ZM19.0346 15.9376C18.4298 15.9376 17.9376 16.4298 17.9376 17.0346V26.9132C17.9376 30.8553 21.1451 34.0629 25.0873 34.0629H26.5279C30.4701 34.0629 33.6776 30.8558 33.6776 26.9132V26.8433C33.6776 22.9012 30.4705 19.6936 26.5279 19.6936H24.9546C24.3499 19.6936 23.8576 20.1859 23.8576 20.7906C23.8576 21.3954 24.3499 21.8876 24.9546 21.8876H26.5279C29.2606 21.8876 31.4836 24.1107 31.4836 26.8433V26.9132C31.4836 29.6458 29.2606 31.8689 26.5279 31.8689H25.0873C22.3546 31.8689 20.1316 29.6458 20.1316 26.9132V17.0346C20.1316 16.4298 19.6394 15.9376 19.0346 15.9376Z" fill="white" stroke="none" />
</g>
<circle cx="25" cy="25" r="24.5" />
<defs>

</defs>
</symbol><clipPath id="blog_clip0">
<rect width="17.6152" height="20" fill="white" transform="translate(17 15)" stroke="none" />
</clipPath><symbol viewBox="0 0 50 50" fill="none" id="buy">
<path d="M23.5001 15.22L17.8301 24.7237" stroke-width="0.9" stroke-miterlimit="10" />
<path d="M37.2298 23.3344C37.2298 22.6096 36.6498 22.0256 35.9298 22.0256H25.0198H14.0998C13.3798 22.0256 12.7998 22.6096 12.7998 23.3344C12.7998 24.0593 13.3798 24.6432 14.0998 24.6432H14.4498L16.8298 33.9859C16.9198 34.3483 17.2498 34.6 17.6198 34.6H24.9498H32.4198C32.7898 34.6 33.1198 34.3483 33.2098 33.9859L35.5898 24.6432H35.9398C36.6498 24.6432 37.2298 24.0593 37.2298 23.3344Z" stroke-width="0.9" stroke-miterlimit="10" />
<path d="M26.5195 15.23L32.1795 24.7337" stroke-width="0.9" stroke-miterlimit="10" />
<circle cx="25" cy="25" r="24.5" />
</symbol><symbol viewBox="0 0 49 50" fill="none" id="call">
<path d="M29.7203 35C29.6424 35 29.5547 35 29.4665 34.9942C27.9432 34.8967 26.5503 34.3113 25.5064 33.8123C22.689 32.4484 20.2215 30.5159 18.1711 28.0685C16.48 26.0305 15.3426 24.1342 14.5894 22.0998C14.1153 20.8289 13.939 19.8295 14.0183 18.8608C14.0766 18.1806 14.3383 17.6171 14.8191 17.1363L16.4893 15.4661C16.8143 15.1611 17.1758 15 17.5341 15C17.8969 15 18.2513 15.1629 18.5598 15.471L18.5691 15.4803C18.8576 15.7501 19.1322 16.0279 19.4559 16.3622C19.5311 16.4396 19.6077 16.5175 19.6847 16.5959C19.7612 16.6738 19.8387 16.7521 19.9157 16.8318L21.2423 18.1584C21.9318 18.8479 21.9318 19.6078 21.2423 20.2974C21.1951 20.3446 21.1488 20.3913 21.1025 20.4385C21.0121 20.5302 20.9186 20.6246 20.8229 20.7171C20.3862 21.1641 20.0092 21.5389 19.5934 21.9128L19.5774 21.9289C19.3544 22.1519 19.3539 22.3308 19.4332 22.5824L19.4416 22.6077C19.7639 23.3841 20.2242 24.1337 20.9302 25.0329L20.9324 25.0352L20.9471 25.053C22.263 26.6738 23.6421 27.9296 25.1628 28.8911C25.344 29.006 25.5367 29.1021 25.7228 29.1952C25.9026 29.2851 26.0727 29.3701 26.2276 29.4654C26.2454 29.4752 26.2601 29.4845 26.2708 29.4912L26.2721 29.4921C26.3705 29.5402 26.4577 29.5624 26.5463 29.5624C26.7658 29.5624 26.91 29.4182 26.9714 29.3567L28.6363 27.6919C28.9604 27.3678 29.3237 27.1964 29.6865 27.1964C30.1784 27.1964 30.5358 27.5009 30.709 27.6887L33.3946 30.3744C34.069 31.0421 34.0744 31.8243 33.4084 32.5187C33.2455 32.6941 33.0834 32.8517 32.9116 33.0186L32.7981 33.129C32.499 33.4144 32.182 33.7255 31.8904 34.0687L31.8762 34.0848C31.3001 34.7004 30.595 35 29.7203 35ZM17.1037 16.1111L15.4486 17.7658C15.1178 18.0965 14.9455 18.4678 14.9055 18.9347C14.8374 19.7654 14.9972 20.6459 15.4241 21.7886C16.1417 23.7273 17.2314 25.5409 18.8549 27.4978C20.8225 29.8469 23.1907 31.7018 25.8924 33.0097C26.8615 33.4731 28.1524 34.0175 29.5244 34.1052C29.5836 34.1092 29.6531 34.1092 29.7198 34.1092C30.348 34.1092 30.8105 33.916 31.2182 33.4834C31.5339 33.113 31.8673 32.7853 32.1811 32.4858L32.2902 32.3798C32.4255 32.2485 32.5546 32.123 32.6788 31.9934L32.7389 31.7691L32.8805 31.7682C33.0852 31.4962 33.0474 31.2829 32.7661 31.0047L30.0582 28.2959C30.0007 28.2327 29.8489 28.0858 29.686 28.0858C29.568 28.0858 29.4149 28.1713 29.2658 28.3204L27.6009 29.9853C27.2915 30.2947 26.9367 30.4518 26.5459 30.4518C26.3148 30.4518 26.0918 30.3966 25.8648 30.2831C25.8363 30.2689 25.8136 30.2546 25.7989 30.2453L25.7709 30.2288C25.6471 30.1518 25.4904 30.0735 25.3248 29.9907C25.1285 29.8923 24.9055 29.781 24.6865 29.6421C23.0888 28.6316 21.6438 27.3193 20.2705 25.6308L20.2634 25.6237L20.2469 25.6032C19.4741 24.6221 18.9702 23.7981 18.6127 22.9318L18.5851 22.8521C18.5152 22.6309 18.3038 21.9623 18.9266 21.3199C18.9515 21.2901 18.9746 21.27 18.9884 21.2585L18.9902 21.2571C19.3931 20.8957 19.7617 20.5293 20.1908 20.0895L20.2002 20.0801C20.2901 19.9933 20.3773 19.9052 20.4699 19.8117C20.5176 19.7636 20.5652 19.7155 20.6133 19.667C20.7303 19.5499 20.8701 19.3786 20.8701 19.2272C20.8701 19.0759 20.7303 18.9045 20.6133 18.7874L19.2796 17.4533C19.203 17.3745 19.1264 17.2966 19.0508 17.2196C18.972 17.1394 18.8941 17.0602 18.8171 16.9809C18.5006 16.6542 18.2335 16.3835 17.9566 16.1249L17.9312 16.1C17.835 16.0038 17.6886 15.8894 17.535 15.8894C17.4095 15.8903 17.2568 15.9687 17.1037 16.1111Z" fill="#888888" stroke="none" />
<path d="M24.1228 0.499999C37.1526 0.499998 47.7456 11.452 47.7456 25C47.7456 38.548 37.1526 49.5 24.1228 49.5C11.093 49.5 0.499999 38.548 0.499999 25C0.499998 11.452 11.093 0.5 24.1228 0.499999Z" />
</symbol><symbol viewBox="0 0 50 50" fill="none" id="copywrite">
<path d="M25.0001 35C23.6504 35 22.3408 34.7356 21.1075 34.214C19.9166 33.7102 18.8474 32.9893 17.929 32.0712C17.0109 31.1531 16.2898 30.0837 15.7863 28.8927C15.2644 27.6594 15 26.3499 15 25.0001C15 23.6504 15.2644 22.3408 15.786 21.1075C16.2898 19.9166 17.0107 18.8474 17.9288 17.929C18.8469 17.0109 19.9163 16.2898 21.1073 15.7863C22.3406 15.2644 23.6504 15 25.0001 15C26.3499 15 27.6594 15.2644 28.8927 15.786C30.0837 16.2898 31.1529 17.0107 32.0712 17.9288C32.9893 18.8469 33.7104 19.9163 34.214 21.1073C34.7356 22.3406 35 23.6501 35 24.9999C35 26.3496 34.7356 27.6592 34.214 28.8925C33.7102 30.0834 32.9893 31.1526 32.0712 32.071C31.1531 32.9891 30.0837 33.7102 28.8927 34.2137C27.6594 34.7356 26.3499 35 25.0001 35ZM25.0001 16.203C22.6502 16.203 20.4413 17.118 18.7798 18.7795C17.118 20.4411 16.203 22.6502 16.203 25.0001C16.203 27.35 17.118 29.5589 18.7795 31.2205C20.4411 32.882 22.6502 33.797 24.9999 33.797C27.3498 33.797 29.5589 32.882 31.2202 31.2205C32.8816 29.5589 33.797 27.3498 33.797 25.0001C33.797 22.6502 32.882 20.4413 31.2205 18.7798C29.5589 17.118 27.3498 16.203 25.0001 16.203Z" fill="#888888" stroke="none" />
<path d="M27.9596 23.5764C27.4284 22.4764 26.3014 21.7157 25.0001 21.7157C23.1891 21.7157 21.7157 23.1891 21.7157 25.0001C21.7157 26.811 23.1891 28.2844 25.0001 28.2844C26.3012 28.2844 27.4281 27.5237 27.9596 26.4237L29.0435 26.945C28.3176 28.448 26.7778 29.4872 25.0001 29.4872C22.5258 29.4872 20.5127 27.4741 20.5127 24.9998C20.5127 22.5255 22.5258 20.5125 25.0001 20.5125C26.7778 20.5125 28.3176 21.5518 29.0435 23.0546L27.9596 23.5764Z" fill="#888888" stroke="none" />
<circle cx="25" cy="25" r="24.5" />
</symbol><symbol viewBox="0 0 49 50" fill="none" id="facebook">
<path d="M24.9664 35H21.7148C21.2556 35 20.882 34.6264 20.882 34.1673V26.681H18.8327C18.3736 26.681 18 26.3074 18 25.8483V22.7061C18 22.2465 18.3736 21.8729 18.8327 21.8729H20.8816V20.1471C20.8816 18.627 21.3567 17.3365 22.2555 16.4142C23.1573 15.4888 24.4204 15 25.9091 15L28.3887 15.004C28.8469 15.0049 29.2201 15.3785 29.2201 15.8367V18.7547C29.2201 19.2138 28.8465 19.5874 28.3873 19.5874L26.7179 19.5878C26.3084 19.5878 26.0456 19.6499 25.9374 19.7726C25.843 19.8795 25.7991 20.1033 25.7991 20.4769V21.872H28.2708C28.4906 21.872 28.7051 21.9611 28.8602 22.1166C29.0171 22.274 29.104 22.4832 29.104 22.7052L29.1026 25.8478C29.1026 26.3069 28.729 26.6806 28.2699 26.6806H25.7991V34.1664C25.7991 34.626 25.4255 35 24.9664 35ZM21.7684 34.1136H24.9128V25.7946H28.2163L28.2176 22.7588H24.9128V20.4773C24.9128 20.0408 24.9558 19.5462 25.2731 19.1863C25.6564 18.752 26.2813 18.7019 26.7179 18.7019L28.3337 18.7015V15.8904L25.9086 15.8864C24.6655 15.8864 23.6213 16.283 22.8905 17.0329C22.1566 17.7863 21.7684 18.8628 21.7684 20.1471V22.7593H18.8864V25.7951H21.7684V34.1136Z" fill="#888888" stroke="none" />
<path d="M24.1228 0.499999C37.1526 0.499998 47.7456 11.452 47.7456 25C47.7456 38.548 37.1526 49.5 24.1228 49.5C11.093 49.5 0.499999 38.548 0.499999 25C0.499998 11.452 11.093 0.5 24.1228 0.499999Z" />
</symbol><symbol viewBox="0 0 40 40" fill="none" id="female">
<path d="M16.7871 13.1323C16.7871 14.9147 18.2271 16.3547 19.9971 16.3547C21.7671 16.3547 23.1971 14.9046 23.1971 13.1323C23.1971 11.35 21.7571 9.8999 19.9971 9.8999C18.2271 9.8999 16.7871 11.35 16.7871 13.1323Z" stroke-width="0.85" stroke-miterlimit="10" />
<path d="M19.5567 20.0302L14.2667 29.2945C14.0767 29.6268 14.3167 30.0497 14.6967 30.0497H19.9867H25.2767C25.6567 30.0497 25.9067 29.6268 25.7067 29.2945L20.4167 20.0302C20.2367 19.6878 19.7567 19.6878 19.5567 20.0302Z" stroke-width="0.85" stroke-miterlimit="10" />
<rect x="0.5" y="0.5" width="39" height="39" rx="19.5" />
</symbol><symbol viewBox="0 0 50 50" fill="none" id="home">
<path d="M32.8826 22.6585V34.2089C32.8826 34.4195 32.7183 34.5799 32.513 34.5799H27.1857C26.9804 34.5799 26.8162 34.4095 26.8162 34.2089V28.0126C26.8162 27.8021 26.652 27.6417 26.4467 27.6417H23.5521C23.3468 27.6417 23.1826 27.8121 23.1826 28.0126V34.2089C23.1826 34.4195 23.0183 34.5799 22.813 34.5799H17.4857C17.2804 34.5799 17.1162 34.4095 17.1162 34.2089V22.5984" stroke-width="0.85" stroke-miterlimit="10" />
<path d="M34.6998 24.2728L24.969 15.58L15.2998 24.2227" stroke-width="0.85" stroke-miterlimit="10" />
<circle cx="25" cy="25" r="24.5" />
</symbol><symbol viewBox="0 0 50 50" fill="none" id="home2">
<path d="M32.4744 35H27.1614C26.7138 35 26.3497 34.6358 26.3497 34.1883V28.0631H23.5986V34.1883C23.5986 34.6358 23.2344 35 22.7868 35H17.4733C17.0258 35 16.6616 34.6358 16.6616 34.1883V23.5832L15.5853 24.5459L15 23.8921L24.9412 15L32.4091 21.6785V21.675L34.9482 23.9491L34.3629 24.6029L34.3625 24.6025L33.2862 23.6403V34.1874C33.2866 34.6358 32.9224 35 32.4744 35ZM27.2272 34.1225H32.4091V22.8557L24.9412 16.1772L17.5392 22.7983V34.122H22.721V27.9968C22.721 27.5493 23.0852 27.1851 23.5328 27.1851H26.415C26.8626 27.1851 27.2268 27.5493 27.2268 27.9968V34.1225H27.2272Z" fill="#ffffff" stroke="none" />
<circle cx="25" cy="25" r="24.5" />
</symbol><symbol viewBox="0 0 49 50" fill="none" id="instagram">
<path d="M24.0002 30.3686C21.0402 30.3686 18.6318 27.9603 18.6318 25.0006C18.6318 22.0405 21.0402 19.6322 24.0002 19.6322C26.9603 19.6322 29.3686 22.0405 29.3686 25.0006C29.3686 27.9603 26.9603 30.3686 24.0002 30.3686ZM24.0002 20.5181C21.529 20.5181 19.5182 22.5289 19.5182 25.0002C19.5182 27.4714 21.529 29.4817 24.0002 29.4817C26.4715 29.4817 28.4823 27.4714 28.4823 25.0002C28.4823 22.5289 26.4715 20.5181 24.0002 20.5181Z" fill="#888888" stroke="none" />
<path d="M29.9007 20.6941C29.457 20.6941 29.0227 20.5142 28.7089 20.2004C28.3942 19.8858 28.2139 19.451 28.2139 19.0074C28.2139 18.5619 28.3947 18.1267 28.7098 17.8134C29.0209 17.5005 29.4557 17.3206 29.9007 17.3206C30.3465 17.3206 30.7817 17.5009 31.0942 17.8152C31.4071 18.1263 31.5875 18.5615 31.5875 19.0074C31.5875 19.4519 31.4075 19.8866 31.0937 20.2004C30.7777 20.5147 30.3434 20.6941 29.9007 20.6941ZM29.9007 18.2069C29.6897 18.2069 29.4841 18.292 29.3365 18.4405C29.1858 18.5903 29.1003 18.7964 29.1003 19.0074C29.1003 19.2174 29.1862 19.424 29.3356 19.5738C29.4845 19.7227 29.6906 19.8082 29.9007 19.8082C30.1107 19.8082 30.3177 19.7227 30.4675 19.5733C30.6155 19.4253 30.7011 19.2188 30.7011 19.0078C30.7011 18.7959 30.616 18.5899 30.4675 18.4423C30.3186 18.292 30.1125 18.2069 29.9007 18.2069Z" fill="#888888" stroke="none" />
<path d="M29.206 35H18.794C17.5154 35 16.3121 34.501 15.4054 33.5946C14.499 32.6883 14 31.485 14 30.206V19.794C14 17.1508 16.1504 15 18.794 15H29.206C31.8496 15 34 17.1508 34 19.794V30.206C34.0004 32.8496 31.8496 35 29.206 35ZM18.794 15.8864C16.6392 15.8864 14.8864 17.6392 14.8864 19.794V30.206C14.8864 31.2479 15.2932 32.2287 16.0325 32.968C16.7717 33.7072 17.7521 34.1141 18.794 34.1141H29.206C31.3501 34.1141 33.0963 32.3785 33.1136 30.2383V19.794C33.1136 17.6392 31.3608 15.8864 29.206 15.8864H18.794Z" fill="#888888" stroke="none" />
<path d="M24.1228 0.499999C37.1526 0.499998 47.7456 11.452 47.7456 25C47.7456 38.548 37.1526 49.5 24.1228 49.5C11.093 49.5 0.499999 38.548 0.499999 25C0.499998 11.452 11.093 0.5 24.1228 0.499999Z" />
</symbol><symbol viewBox="0 0 23 20" id="like">
<path d="M21.0142 1.97205C19.9669 0.936191 18.5245 0.428223 16.677 0.428223C16.1632 0.428223 15.6396 0.517864 15.116 0.697147C14.5824 0.87643 14.0885 1.11547 13.634 1.42424C13.1795 1.72304 12.7843 2.01189 12.4484 2.28081C12.1224 2.54974 11.8062 2.82862 11.5099 3.12743C11.2135 2.82862 10.8973 2.54974 10.5713 2.28081C10.2453 2.01189 9.85006 1.733 9.38571 1.42424C8.93125 1.12543 8.43726 0.87643 7.90376 0.697147C7.36037 0.507904 6.84663 0.428223 6.33288 0.428223C4.48537 0.428223 3.04293 0.946151 1.99568 1.97205C0.93855 2.99794 0.424805 4.43221 0.424805 6.25492C0.424805 6.81269 0.523602 7.39037 0.711317 7.97802C0.908911 8.56567 1.12627 9.07364 1.37326 9.48201C1.62025 9.90033 1.89688 10.2987 2.21303 10.6971C2.52919 11.0956 2.75642 11.3645 2.89474 11.5139C3.04293 11.6633 3.15161 11.7728 3.23065 11.8426L10.9467 19.3525C11.0949 19.5019 11.2727 19.5816 11.4901 19.5816C11.7074 19.5816 11.8853 19.5019 12.0335 19.3525L19.7397 11.8724C21.6267 9.97006 22.5751 8.09755 22.5751 6.26488C22.585 4.43221 22.0614 2.99794 21.0142 1.97205Z" stroke-width="0.85" stroke-miterlimit="10" />
</symbol><symbol viewBox="0 0 50 50" fill="none" id="listen">
<circle cx="25" cy="25" r="24.5" />
<path d="M18.5747 33.5632C17.8324 33.375 17.2783 32.6954 17.2783 31.9009V28.6599C17.2783 27.8549 17.8324 27.1857 18.5747 26.9976" stroke-width="0.9" stroke-miterlimit="10" />
<path d="M20.1424 25.4293C19.2851 25.4293 18.5742 26.1298 18.5742 26.9975V33.5318C18.5742 34.3891 19.2747 35.1 20.1424 35.1C20.9997 35.1 21.7107 34.3995 21.7107 33.5318V26.9975C21.7002 26.1298 20.9997 25.4293 20.1424 25.4293Z" stroke-width="0.9" stroke-miterlimit="10" />
<path d="M32.2598 26.9871C33.0021 27.1753 33.5562 27.8549 33.5562 28.6494V31.9009C33.5562 32.7059 33.0021 33.375 32.2598 33.5632" stroke-width="0.9" stroke-miterlimit="10" />
<path d="M17.2466 30.2803C16.3998 30.2803 15.7202 29.5903 15.7202 28.7539V27.1857C15.5634 26.4852 15.4902 25.7639 15.4902 25.032C15.4902 19.5537 19.944 15.1 25.4223 15.1" stroke-width="0.9" stroke-miterlimit="10" />
<path d="M25.4219 15.1C30.9002 15.1 35.3539 19.5537 35.3539 25.032C35.3539 25.7534 35.2703 26.4852 35.1239 27.1857V28.7539C35.1239 29.6008 34.4339 30.2803 33.5975 30.2803" stroke-width="0.9" stroke-miterlimit="10" />
<path d="M29.1338 26.9975V33.5318C29.1338 34.3995 29.8343 35.1 30.702 35.1C31.5698 35.1 32.2702 34.3995 32.2702 33.5318V26.9975C32.2702 26.1298 31.5698 25.4293 30.702 25.4293C29.8343 25.4293 29.1338 26.1298 29.1338 26.9975Z" stroke-width="0.9" stroke-miterlimit="10" />
</symbol><symbol viewBox="0 0 40 40" fill="none" id="male">
<path d="M16.7871 13.1323C16.7871 14.9147 18.2271 16.3547 19.9971 16.3547C21.7671 16.3547 23.1971 14.9046 23.1971 13.1323C23.1971 11.35 21.7571 9.8999 19.9971 9.8999C18.2271 9.8999 16.7871 11.35 16.7871 13.1323Z" stroke-width="0.85" stroke-miterlimit="10" />
<path d="M19.5567 29.793L14.2667 20.5287C14.0767 20.1964 14.3167 19.7735 14.6967 19.7735H19.9867H25.2767C25.6567 19.7735 25.9067 20.1964 25.7067 20.5287L20.4167 29.793C20.2367 30.1354 19.7567 30.1354 19.5567 29.793Z" stroke-width="0.85" stroke-miterlimit="10" />
<rect x="0.5" y="0.5" width="39" height="39" rx="19.5" />
</symbol><symbol viewBox="0 0 50 50" fill="none" id="planet">
<path d="M24.9998 35C22.329 35 19.8179 33.9599 17.9288 32.0708C16.0401 30.1821 15 27.671 15 24.9998C15 22.329 16.0401 19.8179 17.9292 17.9288C19.8179 16.0401 22.329 15 24.9998 15C27.6706 15 30.1817 16.0401 32.0708 17.9292C33.9594 19.8179 35 22.3294 35 25.0002C35 27.671 33.9599 30.1821 32.0708 32.0712C30.1821 33.9599 27.671 35 24.9998 35ZM24.9998 15.873C19.9672 15.873 15.873 19.9672 15.873 24.9998C15.873 30.0324 19.9672 34.1266 24.9998 34.1266C30.0324 34.1266 34.1266 30.0324 34.1266 24.9998C34.1266 19.9672 30.0324 15.873 24.9998 15.873Z" fill="white" stroke="none" />
<path d="M25.4364 15.4365H24.5635V34.5636H25.4364V15.4365Z" fill="white" stroke="none" />
<path d="M33.4019 19.9907H16.5991V20.8637H33.4019V19.9907Z" fill="white" stroke="none" />
<path d="M34.5636 24.5632H15.4365V25.4362H34.5636V24.5632Z" fill="white" stroke="none" />
<path d="M33.4019 29.1504H16.5991V30.0234H33.4019V29.1504Z" fill="white" stroke="none" />
<path d="M19.1607 25.0042C19.1297 21.6049 20.4758 18.3291 23.161 15.2676L23.8175 15.8433C21.2781 18.7385 20.0053 21.8183 20.0341 24.9963L19.1607 25.0042Z" fill="white" stroke="none" />
<path d="M23.1615 34.7324C20.4763 31.671 19.1306 28.3952 19.1612 24.9958L20.0341 25.0037C20.0053 28.1817 21.2781 31.2615 23.8175 34.1567L23.1615 34.7324Z" fill="white" stroke="none" />
<path d="M30.838 25.0042L29.9651 24.9963C29.9939 21.8183 28.7211 18.7385 26.1816 15.8433L26.8381 15.2676C29.5229 18.3291 30.869 21.6049 30.838 25.0042Z" fill="white" stroke="none" />
<path d="M26.8386 34.7324L26.1821 34.1567C28.7216 31.2615 29.9943 28.1817 29.9655 25.0037L30.8385 24.9958C30.8699 28.3952 29.5238 31.671 26.8386 34.7324Z" fill="white" stroke="none" />
<circle cx="25" cy="25" r="24.5" />
</symbol><symbol viewBox="0 0 50 50" fill="none" id="read">
<circle cx="25" cy="25" r="24.5" />
<path d="M25.0398 34.58C24.7798 34.58 24.5398 34.4587 24.3798 34.2564C24.2898 34.1351 24.1898 34.0239 24.0898 33.9127C23.4598 33.2352 22.3098 32.4163 20.4198 32.4163C18.7198 32.4163 17.0398 32.9926 15.5598 33.4981C14.0698 34.0037 12.6898 34.4789 11.5998 34.2666C11.4198 34.2261 11.2998 34.0542 11.2998 33.8722V18.1397C11.2998 17.9173 11.3898 17.7151 11.5398 17.5634C11.6998 17.4117 11.9198 17.3207 12.1398 17.3308C12.9798 17.3409 14.0898 16.9567 15.2698 16.5624C16.8198 16.0265 18.5698 15.43 20.4298 15.43C22.6498 15.43 24.0198 16.4006 24.7698 17.2196C24.8698 17.3207 24.9598 17.4319 25.0398 17.5432C25.1298 17.4319 25.2198 17.3207 25.3098 17.2196C26.0598 16.4006 27.4298 15.43 29.6498 15.43C31.5098 15.43 33.2598 16.0265 34.8098 16.5624C35.9898 16.9668 37.1098 17.3511 37.9298 17.3308C38.1498 17.3308 38.3698 17.4117 38.5298 17.5634C38.6898 17.7151 38.7698 17.9173 38.7698 18.1397V33.8722C38.7698 34.0542 38.6498 34.2362 38.4698 34.2666C37.3798 34.4789 35.9998 34.0037 34.5098 33.4981C33.0298 32.9926 31.3498 32.4163 29.6498 32.4163C27.7598 32.4163 26.6098 33.2352 25.9798 33.9127C25.8798 34.0239 25.7798 34.1351 25.6898 34.2564C25.5398 34.4587 25.2998 34.58 25.0398 34.58Z" stroke-width="0.9" stroke-miterlimit="10" />
<path d="M25.04 17.533V34.58" stroke-width="0.9" stroke-miterlimit="10" />
</symbol><symbol viewBox="0 0 50 50" fill="none" id="recommended">
<path d="M30.0325 35.0001H20.3604V33.4052H21.4693C22.2076 33.4052 22.8086 32.8043 22.8086 32.0659V25.1358C22.8086 24.3974 22.2076 23.7965 21.4693 23.7965H20.3604V22.2017H27.5843V32.0659C27.5843 32.8043 28.1852 33.4052 28.9236 33.4052H30.0325V35.0001ZM22.3156 34.119H28.0768C27.2711 33.7855 26.7027 32.9911 26.7027 32.0664V23.0832H22.3156C23.1214 23.4167 23.6897 24.2111 23.6897 25.1358V32.0664C23.6897 32.9911 23.1214 33.7859 22.3156 34.119Z" fill="white" stroke="none" />
<path d="M21.1077 20.2155C19.3939 20.2155 18 18.8211 18 17.1077C18 15.3939 19.3939 14 21.1077 14C22.8215 14 24.2155 15.3939 24.2155 17.1077C24.2155 18.8211 22.8211 20.2155 21.1077 20.2155ZM21.1077 14.8811C19.8799 14.8811 18.8811 15.8799 18.8811 17.1077C18.8811 18.3356 19.8799 19.3344 21.1077 19.3344C22.3356 19.3344 23.3344 18.3356 23.3344 17.1077C23.3344 15.8799 22.3356 14.8811 21.1077 14.8811Z" fill="white" stroke="none" />
<path d="M28.5418 20.2155C26.828 20.2155 25.4341 18.8215 25.4341 17.1077C25.4341 15.3939 26.828 14 28.5418 14C30.2556 14 31.6496 15.3939 31.6496 17.1077C31.6496 18.8211 30.2556 20.2155 28.5418 20.2155ZM28.5418 14.8811C27.314 14.8811 26.3152 15.8799 26.3152 17.1077C26.3152 18.3356 27.314 19.3344 28.5418 19.3344C29.7697 19.3344 30.7685 18.3356 30.7685 17.1077C30.7685 15.8799 29.7697 14.8811 28.5418 14.8811Z" fill="white" stroke="none" />
<circle cx="25" cy="25" r="24.5" />
</symbol><symbol viewBox="0 0 50 50" fill="none" id="review">
<circle cx="25" cy="25" r="24.5" />
<path d="M24.5926 35C24.2625 35 23.9657 34.8787 23.7342 34.649L15.9866 27.1742C15.8906 27.0955 15.7706 26.9818 15.6205 26.8272C15.4627 26.665 15.2277 26.3878 14.9016 25.9803C14.575 25.572 14.2791 25.1477 14.0214 24.7185C13.7566 24.2774 13.5189 23.7411 13.315 23.124C13.1062 22.4926 13 21.8679 13 21.2672C13 19.3266 13.5767 17.78 14.7141 16.6692C15.8484 15.5616 17.4221 15 19.3916 15C19.951 15 20.5282 15.0977 21.1057 15.2901C21.6753 15.4798 22.2125 15.7398 22.7025 16.0623C23.1713 16.3707 23.5827 16.6657 23.9239 16.9385C24.1532 17.122 24.3767 17.3148 24.5921 17.5147C24.8072 17.3148 25.0311 17.122 25.2599 16.9385C25.6038 16.6634 26.0152 16.3684 26.4817 16.0619C26.9713 15.7393 27.5089 15.4798 28.0781 15.2897C28.6566 15.0977 29.2333 15 29.7931 15C31.7626 15 33.3363 15.5616 34.4706 16.6692C35.608 17.7795 36.1847 19.3266 36.1847 21.2668C36.1847 23.2137 35.1824 25.2033 33.2053 27.1795L33.1995 27.1853L25.451 34.6481C25.2195 34.8783 24.9227 35 24.5926 35ZM19.3916 15.8886C17.6624 15.8886 16.2976 16.3653 15.3348 17.305C14.3751 18.242 13.8886 19.5749 13.8886 21.2672C13.8886 21.7729 13.9792 22.3033 14.1587 22.8445C14.3422 23.3994 14.5524 23.8762 14.7834 24.2609C15.0207 24.6563 15.2939 25.0478 15.5956 25.425C15.8995 25.8048 16.1221 26.0679 16.258 26.2078C16.4215 26.3762 16.5122 26.4566 16.5593 26.4944L16.5899 26.5215L24.3593 34.0172C24.4251 34.083 24.4953 34.1114 24.5926 34.1114C24.6903 34.1114 24.7601 34.0834 24.8258 34.0172L24.8316 34.0114L32.5801 26.549C34.3822 24.7461 35.2961 22.9689 35.2961 21.2672C35.2961 19.5749 34.8096 18.242 33.8499 17.3055C32.8876 16.3653 31.5227 15.8886 29.7931 15.8886C29.3288 15.8886 28.8467 15.9708 28.3598 16.1334C27.8635 16.2987 27.3961 16.5248 26.9709 16.8047C26.5266 17.0966 26.1378 17.3752 25.8157 17.6329C25.4985 17.887 25.1924 18.1607 24.9071 18.446L24.593 18.7601L24.2789 18.446C23.9928 18.1598 23.6871 17.8861 23.3699 17.6325C23.05 17.3765 22.6612 17.098 22.2152 16.8047C21.7895 16.5248 21.3217 16.2987 20.8258 16.1334C20.338 15.9708 19.8555 15.8886 19.3916 15.8886Z" fill="white" stroke="none" />
</symbol><symbol viewBox="0 0 50 50" fill="none" id="scaleIn">
<path d="M27.6314 27.0063L26.9854 27.6523L34.2098 34.8768L34.8558 34.2307L27.6314 27.0063Z" fill="#888888" />
<path d="M15.7622 15.1411L15.1162 15.7871L22.2041 22.875L22.8501 22.2289L15.7622 15.1411Z" fill="#888888" />
<path d="M22.2713 27.0714L15.1162 34.2285L15.7623 34.8745L22.9175 27.7173L22.2713 27.0714Z" fill="#888888" />
<path d="M34.2109 15.1417L27.0537 22.2969L27.6996 22.943L34.8568 15.7879L34.2109 15.1417Z" fill="#888888" />
<path d="M15.9402 19.8959H15.0264V15H19.9232V15.9134H15.9402V19.8959Z" fill="#888888" />
<path d="M35.0004 19.8959H34.0865V15.9134H30.1035V15H35.0004V19.8959Z" fill="#888888" />
<path d="M19.8982 35.0001H15V30.1055H15.9138V34.0867H19.8982V35.0001Z" fill="#888888" />
<path d="M34.974 35.0001H30.0771V34.0867H34.0602V30.1055H34.974V35.0001Z" fill="#888888" />
<circle cx="25" cy="25" r="24.5" stroke="#888888" />
</symbol><symbol viewBox="0 0 50 50" fill="none" id="scaleOut">
<path d="M27.6726 27.0274L27.0183 27.6818L34.3356 34.9991L34.9899 34.3447L27.6726 27.0274Z" fill="#888888" />
<path d="M15.6543 15L15 15.6543L22.179 22.8333L22.8333 22.179L15.6543 15Z" fill="#888888" />
<path d="M22.2479 27.0963L15.0008 34.3454L15.6552 34.9997L22.9023 27.7505L22.2479 27.0963Z" fill="#888888" />
<path d="M34.3458 15.001L27.0967 22.2481L27.7509 22.9025L35 15.6554L34.3458 15.001Z" fill="#888888" />
<path d="M22.9247 22.9767H17.9647V22.0513H21.9993V18.018H22.9247V22.9767Z" fill="#888888" />
<path d="M31.9128 23.0467H26.9528V18.0867H27.8781V22.1213H31.9128V23.0467Z" fill="#888888" />
<path d="M23.0199 31.9291H22.0946V27.8944H18.0599V26.969H23.0199V31.9291Z" fill="#888888" />
<path d="M27.8266 31.859H26.9012V26.9003H31.8612V27.8257H27.8266V31.859Z" fill="#888888" />
<circle cx="25" cy="25" r="24.5" stroke="#888888" />
</symbol><symbol viewBox="0 0 50 50" fill="none" id="settings">
<circle cx="25" cy="25" r="24.5" />
<path d="M25.8404 35H24.1557C23.358 35 22.6835 34.4291 22.5515 33.643L22.3718 32.5661C22.086 32.4665 21.809 32.3532 21.5448 32.2264L20.6409 32.8698C20.367 33.0668 20.0416 33.1717 19.7006 33.1717C19.2675 33.1717 18.8598 33.0023 18.5516 32.6942L17.3618 31.5044C16.7963 30.9446 16.722 30.0634 17.1862 29.4111L17.8149 28.5365C17.6757 28.2546 17.5539 27.9652 17.4503 27.6708L16.3561 27.4841C15.5709 27.3525 15 26.678 15 25.8804V24.1997C15 23.402 15.5709 22.7275 16.357 22.5955L17.4152 22.4172C17.5166 22.118 17.6353 21.8263 17.77 21.5453L17.1266 20.6414C16.6647 19.9922 16.7385 19.1119 17.3023 18.5481L18.4947 17.3592C18.7989 17.0506 19.207 16.8803 19.6445 16.8803C19.9882 16.8803 20.3155 16.9852 20.5911 17.1835L21.4679 17.8149C21.7494 17.6762 22.0393 17.5539 22.3332 17.4503L22.5199 16.3561C22.6515 15.5709 23.326 15 24.1237 15H25.8043C26.602 15 27.2765 15.5709 27.4085 16.357L27.5868 17.4152C27.8958 17.5201 28.2026 17.6468 28.5041 17.7931L29.3951 17.1586C29.669 16.9617 29.9949 16.8567 30.3359 16.8567C30.769 16.8567 31.1767 17.0261 31.4848 17.3343L32.6747 18.5241C33.2402 19.0839 33.3145 19.9651 32.8503 20.6174L32.2158 21.5048C32.3519 21.7854 32.4719 22.0757 32.5751 22.3732L33.6515 22.5559C34.4434 22.6889 35.0103 23.3642 35.0005 24.1632V25.8412C35.0005 26.6389 34.4296 27.3134 33.6435 27.4454L32.5679 27.6246C32.4679 27.9132 32.3474 28.2035 32.2074 28.4925L32.8423 29.384C33.3042 30.0331 33.2304 30.9135 32.6666 31.4773L31.4768 32.6671C31.1687 32.9752 30.761 33.1446 30.3279 33.1446C29.9842 33.1446 29.657 33.0397 29.3813 32.8414L28.4956 32.2082C28.2151 32.3438 27.9247 32.4643 27.6273 32.5675L27.4446 33.6448C27.3125 34.4291 26.638 35 25.8404 35ZM21.4697 31.1883L21.7116 31.315C22.0793 31.5079 22.4786 31.672 22.8992 31.8032L23.1606 31.8845L23.4292 33.4958C23.4887 33.8515 23.7946 34.1103 24.1561 34.1103H25.8408C26.2023 34.1103 26.5082 33.8515 26.5682 33.4954L26.8416 31.8836L27.1026 31.8027C27.5286 31.6707 27.9408 31.4999 28.328 31.2954L28.5708 31.1669L29.9002 32.1171C30.0247 32.2069 30.1723 32.2536 30.3284 32.2536C30.5236 32.2536 30.7085 32.1766 30.8486 32.0366L32.0384 30.8468C32.2941 30.5911 32.3278 30.1923 32.1184 29.898L31.1696 28.5659L31.2963 28.324C31.5106 27.9149 31.6814 27.5032 31.8036 27.0995L31.8837 26.8354L33.4972 26.5664C33.8529 26.5068 34.1117 26.2009 34.1117 25.8394V24.1526C34.1166 23.7946 33.8614 23.4914 33.5048 23.4314H33.5039L31.893 23.1579L31.8121 22.8969C31.68 22.471 31.5097 22.0588 31.3048 21.6716L31.1763 21.4288L32.1264 20.0994C32.3363 19.8046 32.3034 19.4062 32.0477 19.1528L30.8566 17.9616C30.7165 17.8216 30.532 17.7447 30.3364 17.7447C30.183 17.7447 30.0367 17.7918 29.9135 17.8803L28.5788 18.8309L28.3365 18.7028C27.923 18.4845 27.4957 18.3089 27.0671 18.1804L26.8021 18.1012L26.5326 16.5033C26.4717 16.148 26.1658 15.8892 25.8043 15.8892H24.1237C23.7622 15.8892 23.4563 16.148 23.3963 16.5042L23.1188 18.131L22.8587 18.2124C22.4403 18.3431 22.0299 18.5161 21.6396 18.7264L21.3946 18.8584L20.0709 17.9056C19.9473 17.8167 19.8001 17.77 19.6441 17.77C19.4462 17.77 19.2626 17.846 19.127 17.9843L19.1234 17.9879L17.9305 19.1768C17.6753 19.432 17.6415 19.8308 17.8509 20.1252L18.8078 21.4693L18.681 21.7111C18.4787 22.0975 18.3107 22.5106 18.1822 22.9383L18.1026 23.2028L16.505 23.4723C16.148 23.5323 15.8892 23.8382 15.8892 24.1997V25.8804C15.8892 26.2418 16.148 26.5477 16.5042 26.6078L18.131 26.8852L18.2124 27.1453C18.3431 27.5637 18.5161 27.9741 18.7264 28.3645L18.858 28.609L17.9092 29.9286C17.7002 30.2225 17.7331 30.6209 17.9888 30.8743L19.1799 32.0655C19.32 32.2055 19.5045 32.2825 19.7001 32.2825C19.8535 32.2825 19.9998 32.2353 20.1229 32.1469L21.4697 31.1883Z" fill="white" stroke="none" />
<path d="M25.0021 29.5667C22.4829 29.5667 20.4336 27.5174 20.4336 24.9982C20.4336 22.479 22.4829 20.4297 25.0021 20.4297C27.5213 20.4297 29.5706 22.479 29.5706 24.9982C29.5706 27.5174 27.5209 29.5667 25.0021 29.5667ZM25.0021 21.3185C22.9733 21.3185 21.3228 22.9689 21.3228 24.9977C21.3228 27.0266 22.9733 28.677 25.0021 28.677C27.0309 28.677 28.6813 27.0266 28.6813 24.9977C28.6813 22.9689 27.0305 21.3185 25.0021 21.3185Z" fill="white" stroke="none" />
</symbol><symbol viewBox="0 0 50 50" fill="none" id="shop">
<circle cx="25" cy="25" r="24.5" />
<path d="M19.7188 33.2982C19.7188 34.2333 20.4855 35 21.3802 35C22.2749 35 23.0416 34.2333 23.0416 33.2982C23.0416 32.3632 22.3153 31.5964 21.3802 31.5964C20.4855 31.5964 19.7188 32.3632 19.7188 33.2982ZM20.5717 33.2941C20.5717 32.8251 20.9558 32.4411 21.3802 32.4411C21.8046 32.4411 22.1887 32.8251 22.1887 33.2941C22.1887 33.763 21.8505 34.1471 21.3802 34.1471C20.9558 34.1471 20.5717 33.7644 20.5717 33.2941Z" fill="white" stroke="none" />
<path d="M28.7842 33.2982C28.7842 34.2333 29.5105 35 30.4456 35C31.339 35 32.1071 34.2333 32.1071 33.2982C32.1071 32.3632 31.3807 31.5964 30.4456 31.5964C29.5509 31.5964 28.7842 32.3632 28.7842 33.2982ZM29.6372 33.2941C29.6372 32.8251 29.9753 32.4411 30.4456 32.4411C30.87 32.4411 31.2541 32.8251 31.2541 33.2941C31.2541 33.763 30.916 34.1471 30.4456 34.1471C30.017 34.1471 29.6372 33.7686 29.6372 33.2941Z" fill="white" stroke="none" />
<path d="M17.3795 15H15V15.8488H16.7018L19.7227 27.5513H19.7631H31.339C32.0208 27.5513 32.6164 28.1469 32.6164 28.915C32.6164 29.6831 32.0612 30.2786 31.339 30.2786H19.7631V31.0871H31.339C32.5315 31.0871 33.4652 30.1075 33.4652 28.8746C33.4652 27.7517 32.6943 26.8792 31.6604 26.7275L34.7426 17.5965H18.0404L17.3795 15ZM20.3587 26.7025L18.2742 18.4453H33.5528L30.7838 26.7025H20.3587Z" fill="white" stroke="none" />
</symbol><symbol viewBox="0 0 50 50" fill="none" id="team">
<path d="M21.2685 23.4178C18.6721 23.4178 16.5596 21.3053 16.5596 18.7089C16.5596 16.1125 18.6721 14 21.2685 14C23.8648 14 25.9774 16.1125 25.9774 18.7089C25.9774 21.3053 23.8648 23.4178 21.2685 23.4178ZM21.2685 14.8861C19.1604 14.8861 17.4457 16.6012 17.4457 18.7089C17.4457 20.8166 19.1608 22.5317 21.2685 22.5317C23.3761 22.5317 25.0913 20.8166 25.0913 18.7089C25.0913 16.6012 23.3766 14.8861 21.2685 14.8861Z" fill="white" stroke="none" />
<path d="M29.5352 34.0002H28.6491C28.6491 29.9302 25.338 26.6187 21.2676 26.6187C17.1972 26.6187 13.8861 29.9297 13.8861 34.0002H13C13 29.4415 16.7089 25.7325 21.2676 25.7325C25.8263 25.7325 29.5352 29.4415 29.5352 34.0002Z" fill="white" stroke="none" />
<path d="M31.2233 24.6475C29.0975 24.6475 27.3682 22.9182 27.3682 20.7924C27.3682 18.667 29.0975 16.9377 31.2233 16.9377C33.3487 16.9377 35.078 18.667 35.078 20.7924C35.0784 22.9182 33.3491 24.6475 31.2233 24.6475ZM31.2233 17.8239C29.5862 17.8239 28.2543 19.1557 28.2543 20.7924C28.2543 22.4295 29.5862 23.7614 31.2233 23.7614C32.8604 23.7614 34.1918 22.4295 34.1918 20.7924C34.1923 19.1557 32.8604 17.8239 31.2233 17.8239Z" fill="white" stroke="none" />
<path d="M37.9241 33.1515H37.038C37.038 29.945 34.4292 27.3367 31.2232 27.3367C29.7207 27.3367 28.295 27.9078 27.2086 28.9446L26.5967 28.3035C27.8488 27.1085 29.4917 26.4501 31.2232 26.4501C34.9183 26.4506 37.9241 29.4563 37.9241 33.1515Z" fill="white" stroke="none" />
<circle cx="25" cy="25" r="24.5" />
</symbol><symbol viewBox="0 0 50 50" fill="none" id="video">
<circle cx="25" cy="25" r="24.5" />
<path d="M19.6928 15.5689L35.3292 24.5917C35.6441 24.7806 35.6441 25.2215 35.3292 25.4105L19.7086 34.4333C19.3937 34.6222 19 34.386 19 34.0239V15.9783C19 15.6004 19.3779 15.3799 19.6928 15.5689Z" stroke-width="0.9" stroke-miterlimit="10" />
</symbol></defs></svg>