<svg width="50" height="50" viewBox="0 0 50 50" fill="none" xmlns="http://www.w3.org/2000/svg">
<path d="M25.0001 35C23.6504 35 22.3408 34.7356 21.1075 34.214C19.9166 33.7102 18.8474 32.9893 17.929 32.0712C17.0109 31.1531 16.2898 30.0837 15.7863 28.8927C15.2644 27.6594 15 26.3499 15 25.0001C15 23.6504 15.2644 22.3408 15.786 21.1075C16.2898 19.9166 17.0107 18.8474 17.9288 17.929C18.8469 17.0109 19.9163 16.2898 21.1073 15.7863C22.3406 15.2644 23.6504 15 25.0001 15C26.3499 15 27.6594 15.2644 28.8927 15.786C30.0837 16.2898 31.1529 17.0107 32.0712 17.9288C32.9893 18.8469 33.7104 19.9163 34.214 21.1073C34.7356 22.3406 35 23.6501 35 24.9999C35 26.3496 34.7356 27.6592 34.214 28.8925C33.7102 30.0834 32.9893 31.1526 32.0712 32.071C31.1531 32.9891 30.0837 33.7102 28.8927 34.2137C27.6594 34.7356 26.3499 35 25.0001 35ZM25.0001 16.203C22.6502 16.203 20.4413 17.118 18.7798 18.7795C17.118 20.4411 16.203 22.6502 16.203 25.0001C16.203 27.35 17.118 29.5589 18.7795 31.2205C20.4411 32.882 22.6502 33.797 24.9999 33.797C27.3498 33.797 29.5589 32.882 31.2202 31.2205C32.8816 29.5589 33.797 27.3498 33.797 25.0001C33.797 22.6502 32.882 20.4413 31.2205 18.7798C29.5589 17.118 27.3498 16.203 25.0001 16.203Z" fill="#888888" stroke="none" />
<path d="M27.9596 23.5764C27.4284 22.4764 26.3014 21.7157 25.0001 21.7157C23.1891 21.7157 21.7157 23.1891 21.7157 25.0001C21.7157 26.811 23.1891 28.2844 25.0001 28.2844C26.3012 28.2844 27.4281 27.5237 27.9596 26.4237L29.0435 26.945C28.3176 28.448 26.7778 29.4872 25.0001 29.4872C22.5258 29.4872 20.5127 27.4741 20.5127 24.9998C20.5127 22.5255 22.5258 20.5125 25.0001 20.5125C26.7778 20.5125 28.3176 21.5518 29.0435 23.0546L27.9596 23.5764Z" fill="#888888" stroke="none"/>
<circle cx="25" cy="25" r="24.5"/>
</svg>
