<svg width="49" height="50" viewBox="0 0 49 50" fill="none" xmlns="http://www.w3.org/2000/svg">
<path d="M29.7203 35C29.6424 35 29.5547 35 29.4665 34.9942C27.9432 34.8967 26.5503 34.3113 25.5064 33.8123C22.689 32.4484 20.2215 30.5159 18.1711 28.0685C16.48 26.0305 15.3426 24.1342 14.5894 22.0998C14.1153 20.8289 13.939 19.8295 14.0183 18.8608C14.0766 18.1806 14.3383 17.6171 14.8191 17.1363L16.4893 15.4661C16.8143 15.1611 17.1758 15 17.5341 15C17.8969 15 18.2513 15.1629 18.5598 15.471L18.5691 15.4803C18.8576 15.7501 19.1322 16.0279 19.4559 16.3622C19.5311 16.4396 19.6077 16.5175 19.6847 16.5959C19.7612 16.6738 19.8387 16.7521 19.9157 16.8318L21.2423 18.1584C21.9318 18.8479 21.9318 19.6078 21.2423 20.2974C21.1951 20.3446 21.1488 20.3913 21.1025 20.4385C21.0121 20.5302 20.9186 20.6246 20.8229 20.7171C20.3862 21.1641 20.0092 21.5389 19.5934 21.9128L19.5774 21.9289C19.3544 22.1519 19.3539 22.3308 19.4332 22.5824L19.4416 22.6077C19.7639 23.3841 20.2242 24.1337 20.9302 25.0329L20.9324 25.0352L20.9471 25.053C22.263 26.6738 23.6421 27.9296 25.1628 28.8911C25.344 29.006 25.5367 29.1021 25.7228 29.1952C25.9026 29.2851 26.0727 29.3701 26.2276 29.4654C26.2454 29.4752 26.2601 29.4845 26.2708 29.4912L26.2721 29.4921C26.3705 29.5402 26.4577 29.5624 26.5463 29.5624C26.7658 29.5624 26.91 29.4182 26.9714 29.3567L28.6363 27.6919C28.9604 27.3678 29.3237 27.1964 29.6865 27.1964C30.1784 27.1964 30.5358 27.5009 30.709 27.6887L33.3946 30.3744C34.069 31.0421 34.0744 31.8243 33.4084 32.5187C33.2455 32.6941 33.0834 32.8517 32.9116 33.0186L32.7981 33.129C32.499 33.4144 32.182 33.7255 31.8904 34.0687L31.8762 34.0848C31.3001 34.7004 30.595 35 29.7203 35ZM17.1037 16.1111L15.4486 17.7658C15.1178 18.0965 14.9455 18.4678 14.9055 18.9347C14.8374 19.7654 14.9972 20.6459 15.4241 21.7886C16.1417 23.7273 17.2314 25.5409 18.8549 27.4978C20.8225 29.8469 23.1907 31.7018 25.8924 33.0097C26.8615 33.4731 28.1524 34.0175 29.5244 34.1052C29.5836 34.1092 29.6531 34.1092 29.7198 34.1092C30.348 34.1092 30.8105 33.916 31.2182 33.4834C31.5339 33.113 31.8673 32.7853 32.1811 32.4858L32.2902 32.3798C32.4255 32.2485 32.5546 32.123 32.6788 31.9934L32.7389 31.7691L32.8805 31.7682C33.0852 31.4962 33.0474 31.2829 32.7661 31.0047L30.0582 28.2959C30.0007 28.2327 29.8489 28.0858 29.686 28.0858C29.568 28.0858 29.4149 28.1713 29.2658 28.3204L27.6009 29.9853C27.2915 30.2947 26.9367 30.4518 26.5459 30.4518C26.3148 30.4518 26.0918 30.3966 25.8648 30.2831C25.8363 30.2689 25.8136 30.2546 25.7989 30.2453L25.7709 30.2288C25.6471 30.1518 25.4904 30.0735 25.3248 29.9907C25.1285 29.8923 24.9055 29.781 24.6865 29.6421C23.0888 28.6316 21.6438 27.3193 20.2705 25.6308L20.2634 25.6237L20.2469 25.6032C19.4741 24.6221 18.9702 23.7981 18.6127 22.9318L18.5851 22.8521C18.5152 22.6309 18.3038 21.9623 18.9266 21.3199C18.9515 21.2901 18.9746 21.27 18.9884 21.2585L18.9902 21.2571C19.3931 20.8957 19.7617 20.5293 20.1908 20.0895L20.2002 20.0801C20.2901 19.9933 20.3773 19.9052 20.4699 19.8117C20.5176 19.7636 20.5652 19.7155 20.6133 19.667C20.7303 19.5499 20.8701 19.3786 20.8701 19.2272C20.8701 19.0759 20.7303 18.9045 20.6133 18.7874L19.2796 17.4533C19.203 17.3745 19.1264 17.2966 19.0508 17.2196C18.972 17.1394 18.8941 17.0602 18.8171 16.9809C18.5006 16.6542 18.2335 16.3835 17.9566 16.1249L17.9312 16.1C17.835 16.0038 17.6886 15.8894 17.535 15.8894C17.4095 15.8903 17.2568 15.9687 17.1037 16.1111Z" fill="#888888" stroke="none"/>
<path d="M24.1228 0.499999C37.1526 0.499998 47.7456 11.452 47.7456 25C47.7456 38.548 37.1526 49.5 24.1228 49.5C11.093 49.5 0.499999 38.548 0.499999 25C0.499998 11.452 11.093 0.5 24.1228 0.499999Z"/>
</svg>
