<svg width="49" height="50" viewBox="0 0 49 50" fill="none" xmlns="http://www.w3.org/2000/svg">
<path d="M24.9664 35H21.7148C21.2556 35 20.882 34.6264 20.882 34.1673V26.681H18.8327C18.3736 26.681 18 26.3074 18 25.8483V22.7061C18 22.2465 18.3736 21.8729 18.8327 21.8729H20.8816V20.1471C20.8816 18.627 21.3567 17.3365 22.2555 16.4142C23.1573 15.4888 24.4204 15 25.9091 15L28.3887 15.004C28.8469 15.0049 29.2201 15.3785 29.2201 15.8367V18.7547C29.2201 19.2138 28.8465 19.5874 28.3873 19.5874L26.7179 19.5878C26.3084 19.5878 26.0456 19.6499 25.9374 19.7726C25.843 19.8795 25.7991 20.1033 25.7991 20.4769V21.872H28.2708C28.4906 21.872 28.7051 21.9611 28.8602 22.1166C29.0171 22.274 29.104 22.4832 29.104 22.7052L29.1026 25.8478C29.1026 26.3069 28.729 26.6806 28.2699 26.6806H25.7991V34.1664C25.7991 34.626 25.4255 35 24.9664 35ZM21.7684 34.1136H24.9128V25.7946H28.2163L28.2176 22.7588H24.9128V20.4773C24.9128 20.0408 24.9558 19.5462 25.2731 19.1863C25.6564 18.752 26.2813 18.7019 26.7179 18.7019L28.3337 18.7015V15.8904L25.9086 15.8864C24.6655 15.8864 23.6213 16.283 22.8905 17.0329C22.1566 17.7863 21.7684 18.8628 21.7684 20.1471V22.7593H18.8864V25.7951H21.7684V34.1136Z" fill="#888888" stroke="none"/>
<path d="M24.1228 0.499999C37.1526 0.499998 47.7456 11.452 47.7456 25C47.7456 38.548 37.1526 49.5 24.1228 49.5C11.093 49.5 0.499999 38.548 0.499999 25C0.499998 11.452 11.093 0.5 24.1228 0.499999Z"/>
</svg>
