<svg width="49" height="50" viewBox="0 0 49 50" fill="none" xmlns="http://www.w3.org/2000/svg">
<path d="M24.0002 30.3686C21.0402 30.3686 18.6318 27.9603 18.6318 25.0006C18.6318 22.0405 21.0402 19.6322 24.0002 19.6322C26.9603 19.6322 29.3686 22.0405 29.3686 25.0006C29.3686 27.9603 26.9603 30.3686 24.0002 30.3686ZM24.0002 20.5181C21.529 20.5181 19.5182 22.5289 19.5182 25.0002C19.5182 27.4714 21.529 29.4817 24.0002 29.4817C26.4715 29.4817 28.4823 27.4714 28.4823 25.0002C28.4823 22.5289 26.4715 20.5181 24.0002 20.5181Z" fill="#888888" stroke="none"/>
<path d="M29.9007 20.6941C29.457 20.6941 29.0227 20.5142 28.7089 20.2004C28.3942 19.8858 28.2139 19.451 28.2139 19.0074C28.2139 18.5619 28.3947 18.1267 28.7098 17.8134C29.0209 17.5005 29.4557 17.3206 29.9007 17.3206C30.3465 17.3206 30.7817 17.5009 31.0942 17.8152C31.4071 18.1263 31.5875 18.5615 31.5875 19.0074C31.5875 19.4519 31.4075 19.8866 31.0937 20.2004C30.7777 20.5147 30.3434 20.6941 29.9007 20.6941ZM29.9007 18.2069C29.6897 18.2069 29.4841 18.292 29.3365 18.4405C29.1858 18.5903 29.1003 18.7964 29.1003 19.0074C29.1003 19.2174 29.1862 19.424 29.3356 19.5738C29.4845 19.7227 29.6906 19.8082 29.9007 19.8082C30.1107 19.8082 30.3177 19.7227 30.4675 19.5733C30.6155 19.4253 30.7011 19.2188 30.7011 19.0078C30.7011 18.7959 30.616 18.5899 30.4675 18.4423C30.3186 18.292 30.1125 18.2069 29.9007 18.2069Z" fill="#888888" stroke="none"/>
<path d="M29.206 35H18.794C17.5154 35 16.3121 34.501 15.4054 33.5946C14.499 32.6883 14 31.485 14 30.206V19.794C14 17.1508 16.1504 15 18.794 15H29.206C31.8496 15 34 17.1508 34 19.794V30.206C34.0004 32.8496 31.8496 35 29.206 35ZM18.794 15.8864C16.6392 15.8864 14.8864 17.6392 14.8864 19.794V30.206C14.8864 31.2479 15.2932 32.2287 16.0325 32.968C16.7717 33.7072 17.7521 34.1141 18.794 34.1141H29.206C31.3501 34.1141 33.0963 32.3785 33.1136 30.2383V19.794C33.1136 17.6392 31.3608 15.8864 29.206 15.8864H18.794Z" fill="#888888" stroke="none"/>
<path d="M24.1228 0.499999C37.1526 0.499998 47.7456 11.452 47.7456 25C47.7456 38.548 37.1526 49.5 24.1228 49.5C11.093 49.5 0.499999 38.548 0.499999 25C0.499998 11.452 11.093 0.5 24.1228 0.499999Z"/>
</svg>
